<?xml version='1.0' encoding='utf-8'?>
<svg version="1.0" xmlns="http://www.w3.org/2000/svg" xmlns:xlink="http://www.w3.org/1999/xlink" viewBox="0 0 620 620" enable-background="new 0 0 620 620" xml:space="preserve">
    <line x1="518.500000" y1="243.699997" x2="480.799988" y2="280.299988" stroke="#000000" width="2" fill="none"/>
    <line x1="480.799988" y1="280.299988" x2="443.099976" y2="243.699982" stroke="#000000" width="2" fill="none"/>
    <line x1="443.099976" y1="243.699982" x2="480.799988" y2="207.099976" stroke="#000000" width="2" fill="none"/>
    <line x1="480.799988" y1="207.099976" x2="518.500000" y2="243.699997" stroke="#000000" width="2" fill="none"/>
    <line x1="527.200012" y1="251.600006" x2="473.000000" y2="304.800018" stroke="#000000" width="2" fill="none"/>
    <line x1="473.000000" y1="304.800018" x2="418.799988" y2="251.600021" stroke="#000000" width="2" fill="none"/>
    <line x1="418.799988" y1="251.600021" x2="473.000000" y2="198.400024" stroke="#000000" width="2" fill="none"/>
    <line x1="473.000000" y1="198.400024" x2="527.200012" y2="251.600006" stroke="#000000" width="2" fill="none"/>
    <line x1="251.800003" y1="188.899994" x2="240.199997" y2="200.500000" stroke="#000000" width="2" fill="none"/>
    <line x1="240.199997" y1="200.500000" x2="228.599991" y2="188.899994" stroke="#000000" width="2" fill="none"/>
    <line x1="228.599991" y1="188.899994" x2="240.199997" y2="177.299988" stroke="#000000" width="2" fill="none"/>
    <line x1="240.199997" y1="177.299988" x2="251.800003" y2="188.899994" stroke="#000000" width="2" fill="none"/>
    <line x1="301.700012" y1="211.899994" x2="264.000000" y2="248.500000" stroke="#000000" width="2" fill="none"/>
    <line x1="264.000000" y1="248.500000" x2="226.300003" y2="211.899994" stroke="#000000" width="2" fill="none"/>
    <line x1="226.300003" y1="211.899994" x2="239.137277" y2="199.437280" stroke="#000000" width="2" fill="none"/>
    <line x1="250.909018" y1="188.009008" x2="264.000000" y2="175.299988" stroke="#000000" width="2" fill="none"/>
    <line x1="264.000000" y1="175.299988" x2="301.700012" y2="211.899994" stroke="#000000" width="2" fill="none"/>
    <line x1="310.299988" y1="219.800003" x2="256.099976" y2="273.000000" stroke="#000000" width="2" fill="none"/>
    <line x1="256.099976" y1="273.000000" x2="201.899979" y2="219.800003" stroke="#000000" width="2" fill="none"/>
    <line x1="201.899979" y1="219.800003" x2="230.968146" y2="191.268149" stroke="#000000" width="2" fill="none"/>
    <line x1="242.676159" y1="179.776150" x2="256.099976" y2="166.600006" stroke="#000000" width="2" fill="none"/>
    <line x1="256.099976" y1="166.600006" x2="310.299988" y2="219.800003" stroke="#000000" width="2" fill="none"/>
    <line x1="405.600006" y1="144.500000" x2="260.022668" y2="179.161271" stroke="#000000" width="2" fill="none"/>
    <line x1="164.100006" y1="202.000000" x2="252.700012" y2="364.000000" stroke="#000000" width="2" fill="none"/>
    <line x1="252.700012" y1="364.000000" x2="339.000000" y2="466.899994" stroke="#000000" width="2" fill="none"/>
    <line x1="339.000000" y1="466.899994" x2="451.000000" y2="391.200012" stroke="#000000" width="2" fill="none"/>
    <line x1="451.000000" y1="391.200012" x2="550.200012" y2="304.200012" stroke="#000000" width="2" fill="none"/>
</svg>
