<?xml version='1.0' encoding='utf-8'?>
<svg version="1.0" xmlns="http://www.w3.org/2000/svg" xmlns:xlink="http://www.w3.org/1999/xlink" viewBox="0 0 620 620" enable-background="new 0 0 620 620" xml:space="preserve">
    <line x1="440.200012" y1="213.399994" x2="416.600006" y2="234.099991" stroke="#000000" width="2" fill="none"/>
    <line x1="416.600006" y1="234.099991" x2="404.700012" y2="205.099991" stroke="#000000" width="2" fill="none"/>
    <line x1="404.700012" y1="205.099991" x2="428.300018" y2="184.399994" stroke="#000000" width="2" fill="none"/>
    <line x1="428.300018" y1="184.399994" x2="440.200012" y2="213.399994" stroke="#000000" width="2" fill="none"/>
    <line x1="343.600006" y1="197.000000" x2="320.000000" y2="217.699997" stroke="#000000" width="2" fill="none"/>
    <line x1="320.000000" y1="217.699997" x2="308.100006" y2="188.599991" stroke="#000000" width="2" fill="none"/>
    <line x1="308.100006" y1="188.599991" x2="331.700012" y2="167.899994" stroke="#000000" width="2" fill="none"/>
    <line x1="331.700012" y1="167.899994" x2="343.600006" y2="197.000000" stroke="#000000" width="2" fill="none"/>
    <line x1="540.299988" y1="232.399994" x2="577.899963" y2="209.599991" stroke="#000000" width="2" fill="none"/>
    <line x1="577.899963" y1="209.599991" x2="521.399963" y2="158.099991" stroke="#000000" width="2" fill="none"/>
    <line x1="521.399963" y1="158.099991" x2="499.199951" y2="184.599991" stroke="#000000" width="2" fill="none"/>
    <line x1="499.199951" y1="184.599991" x2="540.299988" y2="232.399994" stroke="#000000" width="2" fill="none"/>
    <line x1="213.199997" y1="150.100006" x2="196.399994" y2="109.500008" stroke="#000000" width="2" fill="none"/>
    <line x1="196.399994" y1="109.500008" x2="272.500000" y2="101.500008" stroke="#000000" width="2" fill="none"/>
    <line x1="272.500000" y1="101.500008" x2="274.600006" y2="136.000000" stroke="#000000" width="2" fill="none"/>
    <line x1="274.600006" y1="136.000000" x2="213.199997" y2="150.100006" stroke="#000000" width="2" fill="none"/>
    <line x1="376.399994" y1="193.100006" x2="380.000000" y2="270.799988" stroke="#000000" width="2" fill="none"/>
    <line x1="330.100006" y1="387.100006" x2="158.500000" y2="224.600006" stroke="#000000" width="2" fill="none"/>
    <line x1="158.500000" y1="224.600006" x2="327.891825" y2="171.240224" stroke="#000000" width="2" fill="none"/>
    <line x1="332.475491" y1="169.796333" x2="407.700012" y2="146.100006" stroke="#000000" width="2" fill="none"/>
    <line x1="407.700012" y1="146.100006" x2="551.800049" y2="303.500000" stroke="#000000" width="2" fill="none"/>
    <line x1="551.800049" y1="303.500000" x2="330.100006" y2="387.100006" stroke="#000000" width="2" fill="none"/>
    <line x1="330.100006" y1="387.100006" x2="330.100006" y2="387.100006" stroke="#000000" width="2" fill="none"/>
    <line x1="20.100000" y1="287.000000" x2="20.100000" y2="11.100000" stroke="#000000" width="2" fill="none"/>
    <line x1="20.100000" y1="11.100000" x2="484.500000" y2="11.100000" stroke="#000000" width="2" fill="none"/>
    <line x1="484.500000" y1="11.100000" x2="484.500000" y2="174.400009" stroke="#000000" width="2" fill="none"/>
    <line x1="126.800003" y1="289.299988" x2="6.500000" y2="289.299988" stroke="#000000" width="2" fill="none"/>
    <line x1="6.500000" y1="289.299988" x2="6.500000" y2="326.799988" stroke="#000000" width="2" fill="none"/>
    <line x1="6.500000" y1="326.799988" x2="150.699997" y2="326.799988" stroke="#000000" width="2" fill="none"/>
    <line x1="37.099998" y1="83.800003" x2="134.699997" y2="257.500000" stroke="#000000" width="2" fill="none"/>
    <line x1="161.100006" y1="288.299988" x2="19.500000" y2="288.299988" stroke="#000000" width="2" fill="none"/>
    <line x1="19.500000" y1="288.299988" x2="19.500000" y2="10.500000" stroke="#000000" width="2" fill="none"/>
    <line x1="19.500000" y1="10.500000" x2="485.000000" y2="10.500000" stroke="#000000" width="2" fill="none"/>
    <line x1="485.000000" y1="10.500000" x2="485.000000" y2="178.500000" stroke="#000000" width="2" fill="none"/>
    <line x1="24.269720" y1="289.299988" x2="6.700000" y2="289.899994" stroke="#000000" width="2" fill="none"/>
    <line x1="6.700000" y1="289.899994" x2="6.700000" y2="326.799988" stroke="#000000" width="2" fill="none"/>
    <line x1="6.700000" y1="327.000000" x2="159.599991" y2="327.000000" stroke="#000000" width="2" fill="none"/>
    <line x1="159.599991" y1="327.000000" x2="142.709346" y2="288.299988" stroke="#000000" width="2" fill="none"/>
    <line x1="468.600006" y1="220.600006" x2="457.000000" y2="232.200012" stroke="#000000" width="2" fill="none"/>
    <line x1="457.000000" y1="232.200012" x2="445.399994" y2="220.600006" stroke="#000000" width="2" fill="none"/>
    <line x1="445.399994" y1="220.600006" x2="457.000000" y2="209.000000" stroke="#000000" width="2" fill="none"/>
    <line x1="457.000000" y1="209.000000" x2="468.600006" y2="220.600006" stroke="#000000" width="2" fill="none"/>
    <line x1="518.500000" y1="243.699997" x2="507.145116" y2="254.723565" stroke="#000000" width="2" fill="none"/>
    <line x1="480.799988" y1="280.299988" x2="443.099976" y2="243.699982" stroke="#000000" width="2" fill="none"/>
    <line x1="443.099976" y1="243.699982" x2="455.987995" y2="231.188007" stroke="#000000" width="2" fill="none"/>
    <line x1="471.664841" y1="215.968578" x2="480.799988" y2="207.099976" stroke="#000000" width="2" fill="none"/>
    <line x1="480.799988" y1="207.099976" x2="518.500000" y2="243.699997" stroke="#000000" width="2" fill="none"/>
    <line x1="527.200012" y1="251.600006" x2="515.130915" y2="263.446426" stroke="#000000" width="2" fill="none"/>
    <line x1="473.000000" y1="304.800018" x2="418.799988" y2="251.600021" stroke="#000000" width="2" fill="none"/>
    <line x1="418.799988" y1="251.600021" x2="447.868159" y2="223.068171" stroke="#000000" width="2" fill="none"/>
    <line x1="463.825288" y1="207.405459" x2="473.000000" y2="198.400024" stroke="#000000" width="2" fill="none"/>
    <line x1="473.000000" y1="198.400024" x2="527.200012" y2="251.600006" stroke="#000000" width="2" fill="none"/>
    <line x1="251.800003" y1="188.899994" x2="242.588561" y2="198.111436" stroke="#000000" width="2" fill="none"/>
    <line x1="238.955786" y1="199.255789" x2="228.599991" y2="188.899994" stroke="#000000" width="2" fill="none"/>
    <line x1="228.599991" y1="188.899994" x2="240.199997" y2="177.299988" stroke="#000000" width="2" fill="none"/>
    <line x1="240.199997" y1="177.299988" x2="251.800003" y2="188.899994" stroke="#000000" width="2" fill="none"/>
    <line x1="301.700012" y1="211.899994" x2="264.000000" y2="248.500000" stroke="#000000" width="2" fill="none"/>
    <line x1="264.000000" y1="248.500000" x2="226.300003" y2="211.899994" stroke="#000000" width="2" fill="none"/>
    <line x1="226.300003" y1="211.899994" x2="239.137277" y2="199.437280" stroke="#000000" width="2" fill="none"/>
    <line x1="250.909018" y1="188.009008" x2="264.000000" y2="175.299988" stroke="#000000" width="2" fill="none"/>
    <line x1="264.000000" y1="175.299988" x2="276.495175" y2="187.430581" stroke="#000000" width="2" fill="none"/>
    <line x1="310.299988" y1="219.800003" x2="256.099976" y2="273.000000" stroke="#000000" width="2" fill="none"/>
    <line x1="256.099976" y1="273.000000" x2="201.899979" y2="219.800003" stroke="#000000" width="2" fill="none"/>
    <line x1="215.209478" y1="206.736066" x2="230.968146" y2="191.268149" stroke="#000000" width="2" fill="none"/>
    <line x1="242.676159" y1="179.776150" x2="256.099976" y2="166.600006" stroke="#000000" width="2" fill="none"/>
    <line x1="256.099976" y1="166.600006" x2="277.121199" y2="187.233378" stroke="#000000" width="2" fill="none"/>
    <line x1="349.772052" y1="157.792370" x2="260.022668" y2="179.161271" stroke="#000000" width="2" fill="none"/>
    <line x1="195.755035" y1="259.879394" x2="252.700012" y2="364.000000" stroke="#000000" width="2" fill="none"/>
    <line x1="252.700012" y1="364.000000" x2="339.000000" y2="466.899994" stroke="#000000" width="2" fill="none"/>
    <line x1="339.000000" y1="466.899994" x2="451.000000" y2="391.200012" stroke="#000000" width="2" fill="none"/>
    <line x1="451.000000" y1="391.200012" x2="550.200012" y2="304.200012" stroke="#000000" width="2" fill="none"/>
</svg>
