<?xml version='1.0' encoding='utf-8'?>
<svg version="1.0" xmlns="http://www.w3.org/2000/svg" xmlns:xlink="http://www.w3.org/1999/xlink" viewBox="0 0 620 620" enable-background="new 0 0 620 620" xml:space="preserve">
    <line x1="164.000000" y1="330.000000" x2="390.000000" y2="330.000000" stroke="#231f20" width="2" fill="none"/>
    <line x1="390.000000" y1="330.000000" x2="390.000000" y2="463.000000" stroke="#231f20" width="2" fill="none"/>
    <line x1="390.000000" y1="463.000000" x2="164.000000" y2="463.000000" stroke="#231f20" width="2" fill="none"/>
    <line x1="164.000000" y1="463.000000" x2="164.000000" y2="330.000000" stroke="#231f20" width="2" fill="none"/>
    <line x1="203.000000" y1="271.000000" x2="335.000000" y2="271.000000" stroke="#ed1c24" width="2" fill="none"/>
    <line x1="335.000000" y1="271.000000" x2="335.000000" y2="330.000000" stroke="#ed1c24" width="2" fill="none"/>
    <line x1="335.000000" y1="330.000000" x2="203.000000" y2="330.000000" stroke="#ed1c24" width="2" fill="none"/>
    <line x1="203.000000" y1="330.000000" x2="203.000000" y2="271.000000" stroke="#ed1c24" width="2" fill="none"/>
    <line x1="252.000000" y1="330.000000" x2="301.000000" y2="330.000000" stroke="#00a651" width="2" fill="none"/>
    <line x1="301.000000" y1="330.000000" x2="301.000000" y2="392.000000" stroke="#00a651" width="2" fill="none"/>
    <line x1="301.000000" y1="392.000000" x2="252.000000" y2="392.000000" stroke="#00a651" width="2" fill="none"/>
    <line x1="252.000000" y1="392.000000" x2="252.000000" y2="330.000000" stroke="#00a651" width="2" fill="none"/>
</svg>
