<?xml version="1.0" encoding="utf-8"?>
<!-- Generator: Adobe Illustrator 22.1.0, SVG Export Plug-In . SVG Version: 6.00 Build 0)  -->
<svg version="1.0" id="Layer_1" xmlns="http://www.w3.org/2000/svg" xmlns:xlink="http://www.w3.org/1999/xlink" x="0px" y="0px"
	 viewBox="0 0 620 620" enable-background="new 0 0 620 620" xml:space="preserve">
<path fill="none" stroke="#EC008C" stroke-miterlimit="10" 
	d="M159.5,197.8
	c 17-1.9,41.8-6.9,66.7-22.1
	c 34.5-21.1,34.9-40.9,60.4-52.5
	c 37.5-17,102.6-3.9,125.7,42.6
	c 13.4,26.8,10.8,60.8-4.6,84.8
	c -15.1,23.6-38.7,31.8-69.6,42.6
	c -28,9.8-52.6,12.5-69,13.2"/>
<path fill="none" stroke="#00AEEF" stroke-miterlimit="10" 
	d="M 518, 129.2
	c -33.3 -6.6 -59 -2.4 -73.6, 1.3
	c -19.2,4.8 -33.8,13.1 -63,29.7
	c -29.6,16.8 -39.1,26.2 -43.9,31.4
	c -6.9,7.5 -17.9,19.6 -23.8,38.3
	c -1.8,5.7 -2.8,11.2 -3.6,42.9
	c -0.7,27.5 -1,41.3 -0.3,46.9
	c 2.9,22.9,13.1,46.5,25.1,60.1
	c 26.6,30.2,83.6,35.4,139.6,11.9"/>

</svg>
