<?xml version='1.0' encoding='utf-8'?>
<svg version="1.0" xmlns="http://www.w3.org/2000/svg" xmlns:xlink="http://www.w3.org/1999/xlink" viewBox="0 0 620 620" enable-background="new 0 0 620 620" xml:space="preserve">
    <line x1="185.000000" y1="175.699997" x2="209.699997" y2="159.600006" stroke="#9e1f63" width="2" fill="none"/>
    <line x1="209.699997" y1="159.600006" x2="248.300003" y2="146.699997" stroke="#9e1f63" width="2" fill="none"/>
    <line x1="248.300003" y1="146.699997" x2="274.700012" y2="144.699997" stroke="#9e1f63" width="2" fill="none"/>
    <line x1="274.700012" y1="144.699997" x2="295.899994" y2="153.000000" stroke="#9e1f63" width="2" fill="none"/>
    <line x1="295.899994" y1="153.000000" x2="348.700012" y2="181.000000" stroke="#9e1f63" width="2" fill="none"/>
    <line x1="348.700012" y1="181.000000" x2="388.899994" y2="224.899994" stroke="#9e1f63" width="2" fill="none"/>
    <line x1="388.899994" y1="224.899994" x2="399.200012" y2="267.500000" stroke="#9e1f63" width="2" fill="none"/>
    <line x1="399.200012" y1="267.500000" x2="399.500000" y2="287.600006" stroke="#9e1f63" width="2" fill="none"/>
    <line x1="399.500000" y1="287.600006" x2="388.899994" y2="314.000000" stroke="#9e1f63" width="2" fill="none"/>
    <line x1="388.899994" y1="314.000000" x2="367.100006" y2="351.600006" stroke="#9e1f63" width="2" fill="none"/>
    <line x1="367.100006" y1="351.600006" x2="352.899994" y2="371.799988" stroke="#9e1f63" width="2" fill="none"/>
    <line x1="352.899994" y1="371.799988" x2="308.100006" y2="381.700012" stroke="#9e1f63" width="2" fill="none"/>
    <line x1="308.100006" y1="381.700012" x2="289.600006" y2="381.700012" stroke="#9e1f63" width="2" fill="none"/>
    <line x1="289.600006" y1="381.700012" x2="243.399994" y2="381.000000" stroke="#9e1f63" width="2" fill="none"/>
    <line x1="243.399994" y1="381.000000" x2="214.300003" y2="358.200012" stroke="#9e1f63" width="2" fill="none"/>
    <line x1="214.300003" y1="358.200012" x2="181.000000" y2="324.899994" stroke="#9e1f63" width="2" fill="none"/>
    <line x1="181.000000" y1="324.899994" x2="167.500000" y2="296.899994" stroke="#9e1f63" width="2" fill="none"/>
    <line x1="167.500000" y1="296.899994" x2="155.600006" y2="258.899994" stroke="#9e1f63" width="2" fill="none"/>
    <line x1="155.600006" y1="258.899994" x2="154.899994" y2="229.500000" stroke="#9e1f63" width="2" fill="none"/>
    <line x1="154.899994" y1="229.500000" x2="174.699997" y2="199.199997" stroke="#9e1f63" width="2" fill="none"/>
    <line x1="174.699997" y1="199.199997" x2="185.000000" y2="175.699997" stroke="#9e1f63" width="2" fill="none"/>
    <line x1="277.399994" y1="107.099998" x2="277.399994" y2="145.757067" stroke="#006838" width="2" fill="none"/>
    <line x1="277.399994" y1="381.515160" x2="277.399994" y2="431.500000" stroke="#006838" width="2" fill="none"/>
</svg>
