<?xml version="1.0" encoding="utf-8"?>
<!-- Generator: Adobe Illustrator 22.1.0, SVG Export Plug-In . SVG Version: 6.00 Build 0)  -->
<svg version="1.0" id="Layer_1" xmlns="http://www.w3.org/2000/svg" xmlns:xlink="http://www.w3.org/1999/xlink" x="0px" y="0px"
	 viewBox="0 0 239.8 144" style="enable-background:new 0 0 239.8 144;" xml:space="preserve">
<g>
	<path style="fill:#FFE563;" d="M170.2,76.2c-1.2,1.6-4.8,8.8-10,12s-8.4,3.2-14.2,2.8s-12.4-0.5-17.4-2s-9.9,0.1-12.1,0.4
		s-8.4,2-10.5,2.9s-5,2.1-6.6,2.4s-7.4,1.8-10.2,1.1s-5.6-0.5-9.1-2.9s-6.9-4.2-10-7.1s-4.4-7-7.2-9.2s-5-3.8-6.9-4.4
		s-2.8-1.6-4.6-0.9c1,2.5,7.1,12.6,11.2,15.4s7.2,5.3,12.7,7.5s17,4.2,28.5,3.3s21.6-0.7,30.5-1.6c8.9-0.9,19.4-1.5,24.2-3.2
		s7-3.9,8.5-5.9C168.2,84.8,169.9,81.4,170.2,76.2z"/>
	<path style="fill:#7BD968;" d="M24.9,91.8c-0.1,1.6-0.6,6.7,2.1,9.4c4.5,4.6,10.7,2.8,12.4,2.8c1.7-0.1,9.8,0.2,15.2-8.2
		c5.5-8.4,9.9-11.5,12.6-13.5c-1.5-2.2-2.7-4.5-4.5-5.9c-2.9-2.2-5-3.8-6.9-4.4s-2.8-1.6-4.6-0.9c-0.1,0.1-0.3,0.1-0.4,0.2
		c-1.8,3.2-5.7,6.5-8.8,7c-3,0.5-7.7,1-9,1.1c-1,0-1.8,1-2.1,1.1C28.3,82.3,25.1,87.5,24.9,91.8z"/>
	<path style="fill:#7BD968;" d="M95.8,95.2c-2.3,0.4-4.9,0.8-6.6,0.4c-2.9-0.6-5.6-0.5-9.1-2.9c-0.9-0.6-1.7-1.1-2.6-1.7
		c-2.6,2.8-6.2,9.4-7.1,12.1s-1.9,7.2,0.3,11.9s1.8,6.2,2.5,8.2s0.8,3.7,3.4,3.6s4.1-2.1,5.9-4.5s5.3-5.2,8.1-9
		c2.3-3.1,3.9-5.8,4.6-8.2c0.8-2.5,0.4-9.7,0.4-9.7v-0.2H95.8z"/>
	<path style="fill:#7BD968;" d="M170.7,75.6c1.2-2,3-6.3,4.3-6.4c1.5-0.1,2.9,1,3.4,0.6c2.8,0.9,6,2.7,5.9,5.1c0,2.4-0.9,2.4-2,3.2
		c-1,0.8-3.1,0.6-4.6,0C176.3,77.5,172.1,76.6,170.7,75.6z"/>
	<path style="fill:#FFFFFF;" d="M38.9,88.7c-0.9-2.3-0.9-4.3,0-5.4s3.4-1.9,5.1-0.2c1.7,1.7,2.1,3.2,1.7,4.1
		c-0.4,0.9-1.8,2.8-3.2,2.8C41.2,90.1,39.4,89.9,38.9,88.7z"/>
	<path style="fill:#E0B577;" d="M40.4,85.5c0.6-0.5,2.7,0.2,2.9,0.5s-0.1,1.4-0.4,1.4c-0.3,0-2.3,0.9-2.8,0
		C39.7,86.5,39.5,86.1,40.4,85.5z"/>
	<path style="fill:#C79C52;" d="M48.2,63.6c1.9-0.9,3.8-0.9,5.9-0.3c3.5,1.1,11,7.2,17,14.6s10.8,9.9,14.2,10.8S91,90,99.2,87.5
		s10-2.6,14.4-4.2s7.2-0.9,9.9-0.9s7.2,1.1,12.4,1.6s14.5,2.9,20.9-0.9s5.9-6.6,8.5-11.1c2.3-3.9,4.6-7.8,8.8-7.8l0,0
		c-3.3-1.5-7.2-5-8.9-6.7S160,50.6,156,47s-14.5-9.5-19.4-12s-17.5-5.5-24-6.8s-18.9-0.1-25.4,1.6S71,36.4,65.8,40.4
		S58.2,49,54.4,54.6S51.2,61.5,48.2,63.6"/>
	<path style="fill:#C79C52;" d="M133.2,33.6c-5.9-2.1-15.3-4.3-20.7-5.4c-3.4-0.6-8.3-0.7-13.2-0.3c1.6,1.5,4.6,6.3,5.4,12.3
		c5.2-1.6,18.6-0.1,23,1.6C129.8,40.2,132.5,36.1,133.2,33.6z"/>
	<path style="fill:#C79C52;" d="M138,54.5c-1.5-4.8-5.8-8.6-10.4-12.7c2.1-1.6,4.9-5.8,5.5-8.2c1.3,0.5,2.5,0.9,3.3,1.4
		c4.9,2.5,15.4,8.4,19.4,12c3.4,3,6.4,7.1,8.3,9.4c-6.4-1.5-15.9-3.1-19.7-3S138,54.5,138,54.5z"/>
	<path style="fill:#C79C52;" d="M164.2,56.4c-6.4-1.5-15.9-3.1-19.7-3s-6.5,1.1-6.5,1.1c-1.6,1.1-7.5,11-7.5,11
		c0.1,3.7,2.2,4.8,3.8,7.3s3.1,6.9,3.8,11.4c5.3,0.7,13.2,2.1,18.8-1.1c6.4-3.8,5.9-6.6,8.5-11.1c2.3-3.9,4.6-7.8,8.8-7.8l0,0
		c-3.3-1.5-7.2-5-8.9-6.7C164.9,57.2,164.5,56.8,164.2,56.4z"/>
	<path style="fill:#C79C52;" d="M107.9,60.9c-7.9,6-11.4,22.4-10.9,27.3c0.7-0.2,1.5-0.4,2.3-0.7c8.2-2.5,10-2.6,14.4-4.2
		s7.2-0.9,9.9-0.9s7.2,1.1,12.4,1.6c0.6,0.1,1.3,0.2,2.1,0.3c-0.7-4.5-2.3-8.9-3.8-11.4s-3.7-3.6-3.8-7.3
		C128.1,63.2,118.6,58.7,107.9,60.9z"/>
	<path style="fill:#C79C52;" d="M127.6,41.8c-4.4-1.7-17.8-3.2-23-1.6c-1.8,0.6-4.6,3.2-5.4,5.6c1.6,1.8,5.2,6.1,6.3,8.2
		s2,6,2.3,6.9c10.8-2.2,20.2,2.4,22.6,4.6c0,0,6-9.9,7.5-11C136.5,49.8,132.2,45.9,127.6,41.8z"/>
	<path style="fill:#C79C52;" d="M99.3,45.8c-7.2,0.7-19.1,7.1-22.6,9.4s-9,14-9.8,17.9c1.5,1.5,2.9,3.1,4.3,4.8
		c6,7.4,10.8,9.9,14.2,10.8c3.2,0.8,5.2,1.2,11.6-0.6c-0.5-4.8,3-21.3,10.9-27.3c-0.3-0.8-1.2-4.8-2.3-6.9S100.8,47.6,99.3,45.8z"/>
	<path style="fill:#C79C52;" d="M99.3,45.8c-7.2,0.7-19.1,7.1-22.6,9.4c-2.7-5.9-10-12.6-12.9-13c0.6-0.6,1.3-1.2,2.1-1.8
		c5.1-4,14.9-8.9,21.4-10.6c3.1-0.8,7.6-1.5,12.1-1.9c1.6,1.5,4.6,6.3,5.4,12.3C102.8,40.8,100.1,43.5,99.3,45.8z"/>
	<path style="fill:#C79C52;" d="M66.8,73.2c-4.9-5.1-10-8.9-12.7-9.8c-2.1-0.7-4-0.6-5.9,0.3c3-2.2,2.3-3.4,6.1-9
		c3.3-4.8,5.5-8.8,9.3-12.4c2.9,0.4,10.3,7,12.9,13C73.1,57.6,67.6,69.2,66.8,73.2z"/>
	<path style="fill:#FFC163;" d="M44.5,66.6c3-3.4,6.1-4.4,9.6-3.2s11,7.2,17,14.6s10.8,9.9,14.2,10.8S91,90,99.2,87.5
		s10-2.6,14.4-4.2s7.2-0.9,9.9-0.9s7.2,1.1,12.4,1.6s14.5,2.9,20.9-0.9s5.9-6.6,8.5-11.1s5.2-9,10.8-7.5s2.9,4.9,2.4,5.2
		s-1.9-0.8-3.4-0.6s-3.5,5.4-4.8,7c-1.2,1.6-4.8,8.8-10,12s-8.4,3.2-14.2,2.8s-12.4-0.5-17.4-2s-9.9,0.1-12.1,0.4s-8.4,2-10.5,2.9
		s-5,2.1-6.6,2.4s-7.4,1.8-10.2,1.1s-5.6-0.5-9.1-2.9s-6.9-4.2-10-7.1s-4.4-7-7.2-9.2s-5-3.8-6.9-4.4s-2.8-1.6-4.6-0.9
		s-3.4,2-5.4,0.9S43.4,67.9,44.5,66.6z"/>
	<path style="fill:#7BD968;" d="M29.3,98.1c0.4,0.5,1.9,2.4,4.3,2.4s4.9-0.5,5.5-1.9"/>
	<path style="fill:none;stroke:#E8D46D;stroke-miterlimit:10;" d="M170.2,76.2c-1.2,1.6-4.8,8.8-10,12s-8.4,3.2-14.2,2.8
		s-12.4-0.5-17.4-2s-9.9,0.1-12.1,0.4s-8.4,2-10.5,2.9s-5,2.1-6.6,2.4s-7.4,1.8-10.2,1.1s-5.6-0.5-9.1-2.9s-6.9-4.2-10-7.1
		s-4.4-7-7.2-9.2s-5-3.8-6.9-4.4s-2.8-1.6-4.6-0.9c1,2.5,7.1,12.6,11.2,15.4s7.2,5.3,12.7,7.5s17,4.2,28.5,3.3s21.6-0.7,30.5-1.6
		c8.9-0.9,19.4-1.5,24.2-3.2s7-3.9,8.5-5.9C168.2,84.8,169.9,81.4,170.2,76.2z"/>
	<path style="fill:#7BD968;" d="M156.3,90.1c-3.2,1.2-6,1.2-10.3,0.8c-3.6-0.3-7.4-0.4-11-0.8c-0.5,4.8-1.1,13.4,6.5,19.7
		c4,3.4,6.4,3.6,8.9,4.8s5.3,5.8,9.7,6.7c2.2,0.4,3.1,0.2,4.5-1.3s1.8-1.9,1.9-3.5c0.2-1.6,0.8-7.2-0.4-10.3
		c-1.1-3.1-3.2-7.5-4.5-9.5c-1.3-1.9-5.4-6.5-5.4-6.5v-0.1H156.3z"/>
	<path style="fill:#94AEFF;" d="M30.9,80.5c1.8,0.3,2.7,3.3,2.7,3.3c1.5-0.5,2.3-0.2,2.9,0c0.5-2,2.5-4.3,5-4.4s4.8-0.3,5.8,4.4
		c3.3-0.2,6.4-2.3,7.7-2.2c1.2,0.1,2.2,0.9,2.3,1.4c0.1,0.4,0.7,2.1,0.7,2.6c0,0.6-0.2,1.5-0.9,1.7c-0.6,0.2-1.4-0.4-1.5-0.9
		c-0.2-0.6-0.1-1.5-0.6-1.7c-0.4-0.2-1.1-0.1-1.5,0.1s-5.7,1.7-6.4,2c-0.2,1.9-2,5.1-5.5,5.2s-4.1-1.2-4.4-2.5
		c-0.3-1.3-0.6-2.4-0.6-2.4c-1.7,0.1-1.4,0.1-2.5,0.1c-0.7,2.2-2.3,5.4-6,5.5s-5.6-1.9-5.2-6.4c-1.9-0.2-1.2-0.6-1.2-0.6
		c0.4-2.3,0.4-2.3,0.4-2.3l2.5,0.1C25.4,80.2,29.8,80.3,30.9,80.5z"/>
	<path style="fill:none;stroke:#598C4E;stroke-miterlimit:10;" d="M170.7,75.6c1.2-2,3-6.3,4.3-6.4c1.5-0.1,2.9,1,3.4,0.6
		c2.8,0.9,6,2.7,5.9,5.1c0,2.4-0.9,2.4-2,3.2c-1,0.8-3.1,0.6-4.6,0C176.3,77.5,172.1,76.6,170.7,75.6z"/>
	<path style="fill:none;stroke:#598C4E;stroke-miterlimit:10;" d="M156.3,90.1c-3.2,1.2-6,1.2-10.3,0.8c-3.6-0.3-7.4-0.4-11-0.8
		c-0.5,4.8-1.1,13.4,6.5,19.7c4,3.4,6.4,3.6,8.9,4.8s5.3,5.8,9.7,6.7c2.2,0.4,3.1,0.2,4.5-1.3s1.8-1.9,1.9-3.5
		c0.2-1.6,0.8-7.2-0.4-10.3c-1.1-3.1-3.2-7.5-4.5-9.5c-1.3-1.9-5.4-6.5-5.4-6.5v-0.1H156.3z"/>
	<path style="fill:none;stroke:#4464C7;stroke-miterlimit:10;" d="M30.9,80.5c1.8,0.3,2.7,3.3,2.7,3.3c1.5-0.5,2.3-0.2,2.9,0
		c0.5-2,2.5-4.3,5-4.4s4.8-0.3,5.8,4.4c3.3-0.2,6.4-2.3,7.7-2.2c1.2,0.1,2.2,0.9,2.3,1.4c0.1,0.4,0.7,2.1,0.7,2.6
		c0,0.6-0.2,1.5-0.9,1.7c-0.6,0.2-1.4-0.4-1.5-0.9c-0.2-0.6-0.1-1.5-0.6-1.7c-0.4-0.2-1.1-0.1-1.5,0.1s-5.7,1.7-6.4,2
		c-0.2,1.9-2,5.1-5.5,5.2s-4.1-1.2-4.4-2.5c-0.3-1.3-0.6-2.4-0.6-2.4c-1.7,0.1-1.4,0.1-2.5,0.1c-0.7,2.2-2.3,5.4-6,5.5
		s-5.6-1.9-5.2-6.4c-1.9-0.2-1.2-0.6-1.2-0.6c0.4-2.3,0.4-2.3,0.4-2.3l2.5,0.1C25.4,80.2,29.8,80.3,30.9,80.5z"/>
	<path style="fill:none;stroke:#4464C7;stroke-miterlimit:10;" d="M27.1,82.9c2.1-0.9,4.8,0.6,5.2,1.8c0.4,1.2,0,4.7-1.7,5.7
		c-1.7,0.9-4.6,0.7-5.1-0.8C24.8,88.1,24.7,83.9,27.1,82.9z"/>
	<path style="fill:none;stroke:#A87C3B;stroke-miterlimit:10;" d="M27.3,86.3c0.5-0.7,2.5-0.7,3.1,0s0.2,1.7-0.4,2s-2.2,1.4-2.7,0.5
		S26.6,87.2,27.3,86.3z"/>
	<path style="fill:none;stroke:#4464C7;stroke-miterlimit:10;" d="M38.9,88.7c-0.9-2.3-0.9-4.3,0-5.4s3.4-1.9,5.1-0.2
		c1.7,1.7,2.1,3.2,1.7,4.1c-0.4,0.9-1.8,2.8-3.2,2.8C41.2,90.1,39.4,89.9,38.9,88.7z"/>
	<path style="fill:none;stroke:#A87C3B;stroke-miterlimit:10;" d="M40.4,85.5c0.6-0.5,2.7,0.2,2.9,0.5s-0.1,1.4-0.4,1.4
		c-0.3,0-2.3,0.9-2.8,0C39.7,86.5,39.5,86.1,40.4,85.5z"/>
	<path style="fill:none;stroke:#806434;stroke-miterlimit:10;" d="M48.2,63.6c1.9-0.9,3.8-0.9,5.9-0.3c3.5,1.1,11,7.2,17,14.6
		s10.8,9.9,14.2,10.8S91,90,99.2,87.5s10-2.6,14.4-4.2s7.2-0.9,9.9-0.9s7.2,1.1,12.4,1.6s14.5,2.9,20.9-0.9s5.9-6.6,8.5-11.1
		c2.3-3.9,4.6-7.8,8.8-7.8l0,0c-3.3-1.5-7.2-5-8.9-6.7S160,50.6,156,47s-14.5-9.5-19.4-12s-17.5-5.5-24-6.8s-18.9-0.1-25.4,1.6
		S71,36.4,65.8,40.4S58.2,49,54.4,54.6S51.2,61.5,48.2,63.6"/>
	<path style="fill:#FFFFFF;" d="M27.1,82.9c2.1-0.9,4.8,0.6,5.2,1.8c0.4,1.2,0,4.7-1.7,5.7c-1.7,0.9-4.6,0.7-5.1-0.8
		C24.8,88.1,24.7,83.9,27.1,82.9z"/>
	<path style="fill:#E0B577;" d="M27.3,86.3c0.5-0.7,2.5-0.7,3.1,0s0.2,1.7-0.4,2s-2.2,1.4-2.7,0.5S26.6,87.2,27.3,86.3z"/>
	<path style="fill:none;stroke:#598C4E;stroke-miterlimit:10;" d="M24.9,91.8c-0.1,1.6-0.6,6.7,2.1,9.4c4.5,4.6,10.7,2.8,12.4,2.8
		c1.7-0.1,9.8,0.2,15.2-8.2c5.5-8.4,9.9-11.5,12.6-13.5c-1.5-2.2-2.7-4.5-4.5-5.9c-2.9-2.2-5-3.8-6.9-4.4s-2.8-1.6-4.6-0.9
		c-0.1,0.1-0.3,0.1-0.4,0.2c-1.8,3.2-5.7,6.5-8.8,7c-3,0.5-7.7,1-9,1.1c-1,0-1.8,1-2.1,1.1C28.3,82.3,25.1,87.5,24.9,91.8z"/>
	<path style="fill:none;stroke:#598C4E;stroke-miterlimit:10;" d="M95.8,95.2c-2.3,0.4-4.9,0.8-6.6,0.4c-2.9-0.6-5.6-0.5-9.1-2.9
		c-0.9-0.6-1.7-1.1-2.6-1.7c-2.6,2.8-6.2,9.4-7.1,12.1s-1.9,7.2,0.3,11.9s1.8,6.2,2.5,8.2s0.8,3.7,3.4,3.6s4.1-2.1,5.9-4.5
		s5.3-5.2,8.1-9c2.3-3.1,3.9-5.8,4.6-8.2c0.8-2.5,0.4-9.7,0.4-9.7v-0.2H95.8z"/>
	<path style="fill:none;stroke:#806434;stroke-miterlimit:10;" d="M133.2,33.6c-5.9-2.1-15.3-4.3-20.7-5.4
		c-3.4-0.6-8.3-0.7-13.2-0.3c1.6,1.5,4.6,6.3,5.4,12.3c5.2-1.6,18.6-0.1,23,1.6C129.8,40.2,132.5,36.1,133.2,33.6z"/>
	<path style="fill:none;stroke:#806434;stroke-miterlimit:10;" d="M138,54.5c-1.5-4.8-5.8-8.6-10.4-12.7c2.1-1.6,4.9-5.8,5.5-8.2
		c1.3,0.5,2.5,0.9,3.3,1.4c4.9,2.5,15.4,8.4,19.4,12c3.4,3,6.4,7.1,8.3,9.4c-6.4-1.5-15.9-3.1-19.7-3S138,54.5,138,54.5z"/>
	<path style="fill:none;stroke:#806434;stroke-miterlimit:10;" d="M164.2,56.4c-6.4-1.5-15.9-3.1-19.7-3s-6.5,1.1-6.5,1.1
		c-1.6,1.1-7.5,11-7.5,11c0.1,3.7,2.2,4.8,3.8,7.3s3.1,6.9,3.8,11.4c5.3,0.7,13.2,2.1,18.8-1.1c6.4-3.8,5.9-6.6,8.5-11.1
		c2.3-3.9,4.6-7.8,8.8-7.8l0,0c-3.3-1.5-7.2-5-8.9-6.7C164.9,57.2,164.5,56.8,164.2,56.4z"/>
	<path style="fill:none;stroke:#806434;stroke-miterlimit:10;" d="M107.9,60.9c-7.9,6-11.4,22.4-10.9,27.3c0.7-0.2,1.5-0.4,2.3-0.7
		c8.2-2.5,10-2.6,14.4-4.2s7.2-0.9,9.9-0.9s7.2,1.1,12.4,1.6c0.6,0.1,1.3,0.2,2.1,0.3c-0.7-4.5-2.3-8.9-3.8-11.4s-3.7-3.6-3.8-7.3
		C128.1,63.2,118.6,58.7,107.9,60.9z"/>
	<path style="fill:none;stroke:#806434;stroke-miterlimit:10;" d="M127.6,41.8c-4.4-1.7-17.8-3.2-23-1.6c-1.8,0.6-4.6,3.2-5.4,5.6
		c1.6,1.8,5.2,6.1,6.3,8.2s2,6,2.3,6.9c10.8-2.2,20.2,2.4,22.6,4.6c0,0,6-9.9,7.5-11C136.5,49.8,132.2,45.9,127.6,41.8z"/>
	<path style="fill:none;stroke:#806434;stroke-miterlimit:10;" d="M99.3,45.8c-7.2,0.7-19.1,7.1-22.6,9.4s-9,14-9.8,17.9
		c1.5,1.5,2.9,3.1,4.3,4.8c6,7.4,10.8,9.9,14.2,10.8c3.2,0.8,5.2,1.2,11.6-0.6c-0.5-4.8,3-21.3,10.9-27.3c-0.3-0.8-1.2-4.8-2.3-6.9
		S100.8,47.6,99.3,45.8z"/>
	<path style="fill:none;stroke:#806434;stroke-miterlimit:10;" d="M99.3,45.8c-7.2,0.7-19.1,7.1-22.6,9.4c-2.7-5.9-10-12.6-12.9-13
		c0.6-0.6,1.3-1.2,2.1-1.8c5.1-4,14.9-8.9,21.4-10.6c3.1-0.8,7.6-1.5,12.1-1.9c1.6,1.5,4.6,6.3,5.4,12.3
		C102.8,40.8,100.1,43.5,99.3,45.8z"/>
	<path style="fill:none;stroke:#806434;stroke-miterlimit:10;" d="M66.8,73.2c-4.9-5.1-10-8.9-12.7-9.8c-2.1-0.7-4-0.6-5.9,0.3
		c3-2.2,2.3-3.4,6.1-9c3.3-4.8,5.5-8.8,9.3-12.4c2.9,0.4,10.3,7,12.9,13C73.1,57.6,67.6,69.2,66.8,73.2z"/>
	<path style="fill:none;stroke:#B38645;stroke-miterlimit:10;" d="M44.5,66.6c3-3.4,6.1-4.4,9.6-3.2s11,7.2,17,14.6
		s10.8,9.9,14.2,10.8S91,90,99.2,87.5s10-2.6,14.4-4.2s7.2-0.9,9.9-0.9s7.2,1.1,12.4,1.6s14.5,2.9,20.9-0.9s5.9-6.6,8.5-11.1
		s5.2-9,10.8-7.5s2.9,4.9,2.4,5.2s-1.9-0.8-3.4-0.6s-3.5,5.4-4.8,7c-1.2,1.6-4.8,8.8-10,12s-8.4,3.2-14.2,2.8s-12.4-0.5-17.4-2
		s-9.9,0.1-12.1,0.4s-8.4,2-10.5,2.9s-5,2.1-6.6,2.4s-7.4,1.8-10.2,1.1s-5.6-0.5-9.1-2.9s-6.9-4.2-10-7.1s-4.4-7-7.2-9.2
		s-5-3.8-6.9-4.4s-2.8-1.6-4.6-0.9s-3.4,2-5.4,0.9S43.4,67.9,44.5,66.6z"/>
	<path style="fill:none;stroke:#598C4E;stroke-linecap:round;stroke-linejoin:round;stroke-miterlimit:10;" d="M29.3,98.1
		c0.4,0.5,1.9,2.4,4.3,2.4s4.9-0.5,5.5-1.9"/>
</g>
</svg>
