<?xml version="1.0" encoding="utf-8"?>
<!-- Generator: Adobe Illustrator 22.1.0, SVG Export Plug-In . SVG Version: 6.00 Build 0)  -->
<svg version="1.0" id="Layer_1" xmlns="http://www.w3.org/2000/svg" xmlns:xlink="http://www.w3.org/1999/xlink" x="0px" y="0px"
	 viewBox="0 0 620 620" enable-background="new 0 0 620 620" xml:space="preserve">
<rect x="192.6" y="177.4" fill="#ED1C24" width="115.8" height="115.8"/>
<path fill="none" stroke="#231F20" stroke-miterlimit="10" d="M269.1,231.2c10,3.9,26.8,11.8,42.6,27.7c7.6,7.6,26.3,27.1,31.4,57.4
	c3.7,22-1.6,39-9.2,63.4c-4.4,14.1-8.1,25.6-17.5,38.3c-12.3,16.6-27.3,25.7-36.6,30.4"/>
<path opacity="0.67" fill="#00AEEF" stroke="#00AEEF" stroke-miterlimit="10" d="M351,227.2c-22.1-0.7-42.3,27.2-50.8,38.9
	c-5.6,7.7-26,35.8-21.8,72.3c6.2,54.1,61.3,80.3,73.6,86.1c17.7,8.4,54.4,25.9,72.9,11.2C465.4,403.8,405.5,228.9,351,227.2z"/>
</svg>
