<?xml version="1.0" encoding="utf-8"?>
<!-- Generator: Adobe Illustrator 22.1.0, SVG Export Plug-In . SVG Version: 6.00 Build 0)  -->
<svg version="1.0" id="Layer_1" xmlns="http://www.w3.org/2000/svg" xmlns:xlink="http://www.w3.org/1999/xlink" x="0px" y="0px"
	 viewBox="0 0 620 620" enable-background="new 0 0 620 620" xml:space="preserve">
<path fill="#FFFFFF" stroke="#231F20" stroke-miterlimit="10" d="M385,232.5c0,0-79.5-64-127.7-40.3s-55.4,111.2-26.4,141.6
	c29,30.4,135,10.2,130.4-22.1c-4.6-32.3-34-86.8-66.3-72.9c-32.3,13.9-42.9,39.6-31.7,55.1c11.2,15.5,13.9,45.2,39.3,30
	s35.3-21.5,31-36.3c-4.3-14.9-2.6-26.7-20.1-23.8c-17.5,3-22.8-0.7-19.1,11.6c3.6,12.2,9.9,16.2,9.9,16.2s12.2,4.3,12.5,0
	c0.3-4.3,1.3-8.3,1.3-8.3s3-5-2.6-6.3"/>

</svg>
