<?xml version="1.0" encoding="utf-8"?>
<!-- Generator: Adobe Illustrator 22.0.0, SVG Export Plug-In . SVG Version: 6.00 Build 0)  -->
<svg version="1.0"
	 id="svg2" inkscape:version="0.48.2 r9819" sodipodi:docname="drawing.svg" xmlns:cc="http://creativecommons.org/ns#" xmlns:dc="http://purl.org/dc/elements/1.1/" xmlns:inkscape="http://www.inkscape.org/namespaces/inkscape" xmlns:rdf="http://www.w3.org/1999/02/22-rdf-syntax-ns#" xmlns:sodipodi="http://sodipodi.sourceforge.net/DTD/sodipodi-0.dtd" xmlns:svg="http://www.w3.org/2000/svg"
	 xmlns="http://www.w3.org/2000/svg" xmlns:xlink="http://www.w3.org/1999/xlink" x="0px" y="0px" width="1000px" height="1000px"
	 viewBox="0 0 1000 1000" style="enable-background:new 0 0 1000 1000;" xml:space="preserve">
<sodipodi:namedview  bordercolor="#666666" borderopacity="1.0" id="base" inkscape:current-layer="layer1" inkscape:cx="375" inkscape:cy="520" inkscape:document-units="px" inkscape:pageopacity="0.0" inkscape:pageshadow="2" inkscape:window-height="578" inkscape:window-maximized="0" inkscape:window-width="751" inkscape:window-x="0" inkscape:window-y="22" inkscape:zoom="0.35" pagecolor="#ffffff" showgrid="false">
	</sodipodi:namedview>
<g id="layer1" transform="translate(0,-52.362183)" inkscape:groupmode="layer" inkscape:label="Layer 1">
	<path id="path2985" inkscape:connector-curvature="0" style="fill:#FF5555;stroke:#000000;stroke-width:10.6211;" d="M131.7,422
		c0,146.9,43.8,215.4,201.6,142s188.4-107.7,355,78.3s210.3,244.8,162.1-122.4S846,554.2,719,495.4
		C591.9,436.7,732.1,191.9,543.7,187c-188.4-4.9,30.7,78.3-8.8,181.1S355.2,627.6,311.4,475.9S193.1,333.9,131.7,422z"/>
	<rect id="rect2987" x="228.1" y="539.5" style="fill:#00FFFF;stroke:#000000;stroke-width:10.6211;" width="390" height="200.7"/>
	
		<path id="path3008" sodipodi:cx="157.14285" sodipodi:cy="168.57143" sodipodi:rx="57.142857" sodipodi:ry="88.571426" sodipodi:type="arc" style="fill:#00FFFF;" d="
		M402.9,306.6c0,48.9-25.6,88.6-57.1,88.6c-31.6,0-57.1-39.6-57.2-88.6c0,0,0,0,0,0c0-48.9,25.6-88.6,57.1-88.6
		S402.9,257.7,402.9,306.6C402.9,306.6,402.9,306.6,402.9,306.6z"/>
	<path id="rect3010" style="fill:#00FF00;" d="M595.3,798.4l254.9-84.7c27-9,56.1,5.6,65,32.6l13.5,40.7c9,27-5.6,56.1-32.6,65
		l-254.9,84.7c-27,9-56.1-5.6-65-32.6l-13.5-40.7C553.8,836.5,568.3,807.4,595.3,798.4z"/>
	
		<path id="path3038" sodipodi:cx="200" sodipodi:cy="177.14285" sodipodi:rx="54.285713" sodipodi:ry="54.285713" sodipodi:type="arc" style="fill:#00FF00;" d="
		M254.3,229.5c0,30-24.3,54.3-54.3,54.3c-30,0-54.3-24.3-54.3-54.3c0,0,0,0,0-0.1c0-30,24.3-54.3,54.3-54.3S254.3,199.5,254.3,229.5
		C254.3,229.5,254.3,229.5,254.3,229.5z"/>
</g>
</svg>
