<?xml version='1.0' encoding='utf-8'?>
<svg version="1.0" xmlns="http://www.w3.org/2000/svg" xmlns:xlink="http://www.w3.org/1999/xlink" viewBox="0 0 620 620" enable-background="new 0 0 620 620" xml:space="preserve">
    <line x1="81.300003" y1="398.500000" x2="214.000000" y2="398.500000" stroke="#231F20" width="2" fill="none"/>
    <line x1="81.300003" y1="398.500000" x2="214.000000" y2="398.500000" stroke="#231F20" width="2" fill="none"/>
    <path d="M214.000000,398.500000 C214.000000,442.733337 214.000000,486.966675 214.000000,531.200012 " stroke="#231F20" width="2" fill="none"/>
    <path d="M214.000000,398.500000 C214.000000,442.733337 214.000000,486.966675 214.000000,531.200012 " stroke="#231F20" width="2" fill="none"/>
    <path d="M214.000000,531.200012 C169.766663,531.200012 125.533340,531.200012 81.300003,531.200012 " stroke="#231F20" width="2" fill="none"/>
    <path d="M214.000000,531.200012 C169.766663,531.200012 125.533340,531.200012 81.300003,531.200012 " stroke="#231F20" width="2" fill="none"/>
    <line x1="81.300003" y1="531.200012" x2="81.300003" y2="398.500000" stroke="#231F20" width="2" fill="none"/>
    <line x1="81.300003" y1="531.200012" x2="81.300003" y2="398.500000" stroke="#231F20" width="2" fill="none"/>
    <line x1="81.300003" y1="531.200012" x2="81.300003" y2="398.500000" stroke="#231F20" width="2" fill="none"/>
    <line x1="81.300003" y1="531.200012" x2="81.300003" y2="398.500000" stroke="#231F20" width="2" fill="none"/>
    <line x1="81.300003" y1="398.500000" x2="214.000000" y2="398.500000" stroke="#231F20" width="2" fill="none"/>
    <line x1="81.300003" y1="398.500000" x2="214.000000" y2="398.500000" stroke="#231F20" width="2" fill="none"/>
    <path d="M75.000000,458.100006 C36.008694,458.100006 4.400002,426.491302 4.400002,387.500000 " stroke="#231F20" width="2" fill="none"/>
    <path d="M75.000000,458.100006 C36.008694,458.100006 4.400002,426.491302 4.400002,387.500000 " stroke="#231F20" width="2" fill="none"/>
    <path d="M4.400002,387.500000 C4.400002,348.508698 36.008694,316.899994 75.000000,316.899994 " stroke="#231F20" width="2" fill="none"/>
    <path d="M4.400002,387.500000 C4.400002,348.508698 36.008694,316.899994 75.000000,316.899994 " stroke="#231F20" width="2" fill="none"/>
    <path d="M75.000000,316.899994 C113.991302,316.899994 145.600006,348.508698 145.600006,387.500000 " stroke="#231F20" width="2" fill="none"/>
    <path d="M75.000000,316.899994 C113.991302,316.899994 145.600006,348.508698 145.600006,387.500000 " stroke="#231F20" width="2" fill="none"/>
    <path d="M145.600006,387.500000 C145.600006,426.491302 113.991302,458.100006 75.000000,458.100006 C81.300003,486.966675 81.300003,442.733337 81.300003,398.500000 C125.533340,398.500000 169.766663,398.500000 214.000000,398.500000 Z" stroke="#fff000" width="2" fill="#231F20" opacity="0.200000"/>
    <path d="M145.600006,387.500000 C145.600006,426.491302 113.991302,458.100006 75.000000,458.100006 C125.533340,398.500000 169.766663,398.500000 214.000000,398.500000 C214.000000,442.733337 214.000000,486.966675 214.000000,531.200012 C169.766663,531.200012 125.533340,531.200012 81.300003,531.200012 C81.300003,486.966675 81.300003,442.733337 81.300003,398.500000 Z" stroke="#fff000" width="2" fill="#231F20" opacity="0.100000"/>
    <path d="M75.000000,316.899994 C113.991302,316.899994 145.600006,348.508698 145.600006,387.500000 C145.600006,426.491302 113.991302,458.100006 75.000000,458.100006 C125.533340,398.500000 169.766663,398.500000 214.000000,398.500000 C81.300003,486.966675 81.300003,442.733337 81.300003,398.500000 C145.600006,426.491302 113.991302,458.100006 75.000000,458.100006 C36.008694,458.100006 4.400002,426.491302 4.400002,387.500000 C4.400002,348.508698 36.008694,316.899994 75.000000,316.899994 Z" stroke="#fff000" width="2" fill="#231F20" opacity="0.100000"/>
</svg>
