<?xml version="1.0" encoding="utf-8"?>
<!-- Generator: Adobe Illustrator 22.1.0, SVG Export Plug-In . SVG Version: 6.00 Build 0)  -->
<svg version="1.0" id="Layer_1" xmlns="http://www.w3.org/2000/svg" xmlns:xlink="http://www.w3.org/1999/xlink" x="0px" y="0px"
	 viewBox="0 0 620 620" enable-background="new 0 0 620 620" xml:space="preserve">
<path fill="none" stroke="#FFF200" stroke-miterlimit="10" d="M98,376.3c35.4-32.4,32.3-35.3,45.8-42.3c5.7-3,38.1-19.6,57.3-6
	c18,12.8,14.8,45.6,13,64c-4,41.3-21.5,53.5-14.5,74.5c1.7,5,7.6,19.1,48.8,36.5c71,30,124.7,18.2,128,32.5
	c2.6,11.4-29.2,28.8-51,36.8c-7.1,2.6-79.8,28.2-116-6.5c-9.4-9-18-37.9-35.3-95.8c-6.9-23.2-11.5-40.8-26-46.5
	c-11.7-4.6-18.8,3-39.3-0.8c-2.1-0.4-31.4-6-33.5-19.3C74.2,396.7,80.9,391.8,98,376.3z"/>
<rect x="174.3" y="310" fill="none" stroke="#000000" stroke-miterlimit="10" width="98.8" height="79.3"/>
</svg>
