<?xml version="1.0" encoding="utf-8"?>
<!-- Generator: Adobe Illustrator 22.1.0, SVG Export Plug-In . SVG Version: 6.00 Build 0)  -->
<svg version="1.0" id="Layer_1" xmlns="http://www.w3.org/2000/svg" xmlns:xlink="http://www.w3.org/1999/xlink" x="0px" y="0px"
	 viewBox="0 0 620 620" style="enable-background:new 0 0 620 620;" xml:space="preserve">
<style type="text/css">
	.st0{fill:#FFFFFF;stroke:#000000;stroke-miterlimit:10;}
	.st1{fill:none;stroke:#FFF200;stroke-miterlimit:10;}
</style>
<path class="st0" d="M315.3,450.8c-1-25.7,17-50.8,42.3-57.8c25.4-7,45.9,7.5,48,9c19.5,14.2,28,40,21.5,63.3
	c-5.5,19.8-21.9,37.4-43,41.3C352,512.4,316.7,485.2,315.3,450.8z"/>
<path class="st1" d="M246.3,420c19.7,23.1,61.6,21.1,84.3,0c2.1-2,19.3-18.5,17.3-41.3c-3-32.5-43.8-61.5-76.3-50
	C237.7,340.8,223.3,393.1,246.3,420z"/>
</svg>
