<?xml version="1.0" encoding="utf-8"?>
<!-- Generator: Adobe Illustrator 22.1.0, SVG Export Plug-In . SVG Version: 6.00 Build 0)  -->
<svg version="1.0" id="Layer_1" xmlns:svg="http://www.w3.org/2000/svg"
	 xmlns="http://www.w3.org/2000/svg" xmlns:xlink="http://www.w3.org/1999/xlink" x="0px" y="0px" viewBox="0 0 248.2 291.3"
	 enable-background="new 0 0 248.2 291.3" xml:space="preserve">
<title>Layer 1</title>
<path fill="#C8BEB7" stroke="#000000" stroke-width="3.2874" stroke-linecap="round" stroke-linejoin="round" d="M232.2,169.3
	c0,60.5-49,109.6-109.5,109.6S13.1,229.8,13.2,169.3c0-60.5,49-109.6,109.5-109.6S232.2,108.8,232.2,169.3L232.2,169.3z"/>
<path fill-opacity="0.3137" d="M225.6,131.7c0.1,1.7,0.1,3.4,0.1,5.1c0,60.5-49.1,109.5-109.5,109.5c-47.3,0-87.6-30-102.9-72
	c2.7,58.1,50.7,104.5,109.4,104.5c60.5,0,109.5-49.1,109.5-109.5C232.2,156.1,229.9,143.5,225.6,131.7z"/>
<path fill="#6C5D53" stroke="#000000" stroke-width="4" stroke-linecap="round" stroke-linejoin="round" d="M130.9,279.9
	c0,9.1,14.7,9.4,32.7,9.4s32.7,0.7,32.7-9.4c0-17.7-14.7-32.1-32.7-32.1S130.9,262.2,130.9,279.9z"/>
<path fill-opacity="0.3137" d="M207.3,134c0,45.2-55.1,81.8-81.8,81.8c-25.7,0-81.8-36.7-81.8-81.8s24.6-81.8,81.8-81.8
	C182.7,52.2,207.3,88.9,207.3,134L207.3,134z"/>
<path fill="#6C5D53" stroke="#000000" stroke-width="4" stroke-linejoin="round" d="M90,187.7c7.8,17.9,11.4,23.3,11.1,33.6
	c-0.1,4.7,9.2-7.6,9.8-13.8c-0.5,8.9,1.2,11.3,2.2,20.5c1,9.2,4.2,25.1,5.2,21.6c2-7.4,2.9-22.8,8.3-27.6
	c2.4,9.2,14.9,24.6,12.9,18.7c-5-14.3-6.8-21.2-2.5-30.1c7.8,9.5,12.3,13.5,10.8,8.1c-2.5-9,1.1-21.3,7.7-26.5
	C163.9,185.7,90,187.3,90,187.7L90,187.7z"/>
<path fill-opacity="0.3137" stroke="#000000" stroke-width="4" stroke-linejoin="round" d="M176.2,288.7c0-16.4-9.4-26.4-9.4-26.4
	s3.8,13.8,3.1,26.4H176.2L176.2,288.7z"/>
<path fill="#C8BEB7" stroke="#000000" stroke-width="4" stroke-linecap="round" stroke-linejoin="round" d="M120,39
	c-30.1,0.6-50.9,11.7-63.6,28.8c-24.1-2.6-44.1,23.6-44.1,23.6s18.9,9.4,32.1,1.5c-2.4,8.7-3.6,18.1-3.6,27.9
	c0,45.2,56.1,81.8,81.8,81.8c26.7,0,81.8-36.7,81.8-81.8c0-9.8-1.2-19.2-3.6-27.9c13.2,7.9,32-1.5,32-1.5s-20-26.2-44-23.6
	C175.9,50.2,154.3,39,122.7,39C121.8,39,120.9,39,120,39z"/>
<path fill="#6C5D53" stroke="#000000" stroke-width="4" stroke-linejoin="round" d="M144.2,50.2c-2-10.4,12.6-36.4,42.7-46.1
	c20.7-6.7,56,1.2,59.3,41.2c-13.5-23-37.4-28.5-48.7-23.1c-22.7,11-12.5,34.5-23.4,40.7C164,68.7,146.2,61,144.2,50.2z"/>
<path fill-opacity="0.3137" d="M201.2,94l-1.9,2.7c0.2,3.1,0.3,6.2,0.3,9.4c0,45.2-55.1,81.8-81.8,81.8c-20.7,0-61.1-23.8-76.1-56.6
	c7.6,40.2,57.2,71.4,80.9,71.4c26.7,0,81.8-36.7,81.8-81.8C204.5,111.4,203.5,102.4,201.2,94z"/>
<path fill="#6C5D53" stroke="#000000" stroke-width="4" stroke-linecap="round" stroke-linejoin="round" d="M115.9,279.9
	c0,9.1-14.7,9.4-32.7,9.4s-32.7,0.7-32.7-9.4c0-17.7,14.7-32.1,32.7-32.1S115.9,262.2,115.9,279.9z"/>
<path fill-opacity="0.3137" stroke="#000000" stroke-width="4" stroke-linejoin="round" d="M70.5,288.7c0-16.4,9.4-26.4,9.4-26.4
	s-3.8,13.8-3.1,26.4H70.5z"/>
<path d="M139.3,173.5c-2.3,4-6.5,5.8-9.4,4.2c-2.9-1.7-3.4-6.2-1.1-10.2c2.3-4,6.5-5.8,9.4-4.2C141.1,164.9,141.6,169.5,139.3,173.5
	L139.3,173.5z"/>
<path d="M106.6,173.5c2.3,4,6.5,5.8,9.4,4.2c2.9-1.7,3.4-6.2,1.1-10.2c-2.3-4-6.5-5.8-9.4-4.2C104.7,164.9,104.3,169.5,106.6,173.5
	L106.6,173.5z"/>
<path fill="#6C5D53" stroke="#000000" stroke-width="4" stroke-linejoin="round" d="M104,50.2c2-10.4-12.6-36.4-42.7-46.1
	C40.6-2.6,5.3,5.3,2,45.3c13.5-23,37.4-28.5,48.7-23.1c22.7,11,12.5,34.5,23.4,40.7C84.2,68.7,102,61,104,50.2z"/>
</svg>
