<?xml version="1.0" encoding="utf-8"?>
<!-- Generator: Adobe Illustrator 22.1.0, SVG Export Plug-In . SVG Version: 6.00 Build 0)  -->
<svg version="1.0" id="Layer_1" xmlns="http://www.w3.org/2000/svg" xmlns:xlink="http://www.w3.org/1999/xlink" x="0px" y="0px"
	 viewBox="0 0 620 620" enable-background="new 0 0 620 620" xml:space="preserve">
<polyline fill="none" stroke="#231F20" stroke-miterlimit="10" points="159,382.3 266,381.7 334.3,316.7 334.3,191.6 259,118.3 
	150.5,117.3 "/>
<path opacity="0.67" fill="#00AEEF" d="M268.6,166.2c8.9,0,12.9-24.2,24.8-50.2c10.7-23.5,18.8-41.1,35-49.5
	c25.3-13.1,62.8,0.1,84.2,22.4c25.8,27,23.3,62.5,22.8,69.6c-0.5,7.4-2.1,26.2-15.2,44.9c-2.3,3.2-19.7,27.2-50.8,34.3
	c-28.5,6.5-40.4-7.6-66.3,1c-18.5,6.1-33.5,17.9-32,21.8c3.3,8.5,79.7-32.2,123.4,0.3c1.7,1.3,14.9,11.3,20.5,27.1
	c25.8,73-126.7,226.1-198.7,197.4c-33.5-13.4-45-64.2-46.2-70c-4.9-22.7-1.7-41.3,13.2-88.8c25.6-81.7,61-169.8,77.6-165.7
	C264.2,161.7,264.8,166.2,268.6,166.2z"/>
</svg>
