<?xml version="1.0" encoding="utf-8"?>
<!-- Generator: Adobe Illustrator 22.1.0, SVG Export Plug-In . SVG Version: 6.00 Build 0)  -->
<svg version="1.0" id="Layer_1" xmlns="http://www.w3.org/2000/svg" xmlns:xlink="http://www.w3.org/1999/xlink" x="0px" y="0px"
	 width="583px" height="478px" viewBox="0 0 583 478" style="enable-background:new 0 0 583 478;" xml:space="preserve">
<path style="fill:#FFFFFE;" d="M405.6,144.5c0,0-195.3-50.7-241.5,57.5s88.6,162,88.6,162s-38.6,87,86.3,102.9s112-75.7,112-75.7
	s84.8-2.3,99.2-87C564.5,219.5,469.2,151.3,405.6,144.5"/>
<path style="fill:#EFB5C6;" d="M310.3,219.8c0,29.4-24.3,53.2-54.2,53.2c-30,0-54.2-23.8-54.2-53.2s24.3-53.2,54.2-53.2
	C286,166.7,310.3,190.5,310.3,219.8"/>
<path style="fill:#E98EA8;" d="M301.7,211.9c0,20.2-16.9,36.6-37.7,36.6s-37.7-16.4-37.7-36.6s16.9-36.6,37.7-36.6
	C284.8,175.3,301.7,191.7,301.7,211.9"/>
<path style="fill:#FFFFFE;" d="M251.8,188.9c0,6.4-5.2,11.6-11.6,11.6c-6.4,0-11.6-5.2-11.6-11.6c0-6.4,5.2-11.6,11.6-11.6
	C246.6,177.3,251.8,182.5,251.8,188.9"/>
<path style="fill:#EFB5C6;" d="M527.2,251.6c0,29.4-24.3,53.2-54.2,53.2c-30,0-54.2-23.8-54.2-53.2s24.3-53.2,54.2-53.2
	C502.9,198.5,527.2,222.3,527.2,251.6"/>
<path style="fill:#E98EA8;" d="M518.5,243.7c0,20.2-16.9,36.6-37.7,36.6c-20.8,0-37.7-16.4-37.7-36.6s16.9-36.6,37.7-36.6
	C501.7,207.1,518.5,223.5,518.5,243.7"/>
<path style="fill:#FFFFFE;" d="M468.6,220.6c0,6.4-5.2,11.6-11.6,11.6s-11.6-5.2-11.6-11.6c0-6.4,5.2-11.6,11.6-11.6
	C463.4,209.1,468.6,214.2,468.6,220.6"/>
<path style="fill:#C7B267;" d="M141.4,285.3L6.7,289.9V327h152.9L141.4,285.3"/>
<path style="fill:#488546;" d="M161.1,288.3H19.5V10.5H485v168c0,0-124.4-75.1-247.5-37.9C130.1,173.3,161.1,288.3,161.1,288.3"/>
<path style="fill-opacity:0;stroke:#523B25;stroke-width:10;stroke-linecap:round;stroke-linejoin:round;" d="M37.1,83.8l97.6,173.7
	 M126.8,289.3H6.5v37.5h144.2 M20.1,287V11.1h464.4v163.3 M330.1,387.1c0,0-203.1-32-171.6-162.5C190,94,376.9,138.1,407.7,146.1
	s158,41.8,144.1,157.4C536.6,429.9,330.1,387.1,330.1,387.1z M376.4,193.1l3.6,77.7"/>
<path style="fill:#523B25;" d="M213.2,150.1c0,0-26.7-8.3-16.8-40.6s61.7-28.1,76.1-8s2.1,34.5,2.1,34.5S216.3,146.2,213.2,150.1"/>
<path style="fill:#523B25;" d="M540.3,232.4c0,0,26.4,9.1,37.6-22.8c11.2-31.9-33.1-59.2-56.5-51.5c-23.5,7.6-22.2,26.5-22.2,26.5
	S540.1,227.4,540.3,232.4"/>
<path style="fill:#523B25;" d="M343.6,197c-3.2,13.7-13.8,23-23.6,20.7c-9.8-2.3-15.1-15.3-11.9-29.1c3.3-13.7,13.8-23,23.6-20.7
	C341.5,170.3,346.8,183.3,343.6,197"/>
<path style="fill:#523B25;" d="M440.2,213.4c-3.2,13.7-13.8,23-23.6,20.7c-9.8-2.3-15.1-15.3-11.9-29s13.8-23,23.6-20.7
	C438.1,186.6,443.5,199.6,440.2,213.4"/>
<path style="fill:#523B25;" d="M389.6,191.1c-1,4-7.1,6.1-13.8,4.5c-6.7-1.6-11.3-6.1-10.3-10.2c0.9-4.1,7.1-6.1,13.8-4.5
	C386,182.5,390.6,187.1,389.6,191.1"/>
<path style="fill-opacity:0;stroke:#523B25;stroke-width:10;stroke-linecap:round;stroke-linejoin:round;" d="M293.5,223
	c0,0,10.3,42.3,79.8,49.2c69.5,6.9,84.5-29.3,84.5-29.3 M250.4,362.9c0,0-31.8,88.6,88.6,104.5c114.7,15.1,111.3-77.2,114.7-77.2"/>
<path style="fill:#523B25;" d="M245.9,400.4c0,0-137.8-57.8-129.4-127.2c4.5-37.5,48.2-25,55.6-6.2c13.4,34.1,52.6,86,77.2,94.2
	L245.9,400.4"/>
<path style="fill:#523B25;" d="M448,414.6c0,0,44.3,27.8,53.4,41.4s55.1,6.8,41.4-26.7c-13.6-33.5-70.4-43.7-70.4-43.7l-21.6,4
	L448,414.6"/>
</svg>
