<?xml version="1.0" encoding="utf-8"?>
<!-- Generator: Adobe Illustrator 22.0.0, SVG Export Plug-In . SVG Version: 6.00 Build 0)  -->
<svg version="1.0" id="Layer_1" xmlns="http://www.w3.org/2000/svg" xmlns:xlink="http://www.w3.org/1999/xlink" x="0px" y="0px"
	 width="316.1px" height="383.1px" viewBox="0 0 316.1 383.1" style="enable-background:new 0 0 316.1 383.1;" xml:space="preserve"
	>
<style type="text/css">
	.st0{fill:none;stroke:#FF0000;stroke-width:0.1;stroke-miterlimit:10;}
	.st1{fill:none;stroke:#0000FF;stroke-width:0.1;stroke-miterlimit:10;}
	.st2{fill:none;stroke:#0000FF;stroke-width:0.1;stroke-linecap:round;stroke-linejoin:round;}
</style>
<g>
	<path class="st0" d="M300,181l-1.2-77l15.1,0v-4.8l1,0l-6.4-17.5L304.2,14l-66.3-0.8L216.5,0.1h-5.1l-23.6,12.5l-19.7-0.2v-2.1
		l-2-2.1l-1.8-3.7h-11.8L151,6.9v5.3L137.9,12l-14.8,65.5L100.4,92c0.4-4.6,0.7-6.6,0-6.9c-0.8-0.3-1.8,2.1-3.5,2
		c-1.7-0.1-2.9-2.8-3.5-4.2c-1.1-2.7-0.8-3.6-1.5-6.2c-1.2-4.7-3.2-5-4.5-9.5c-0.4-1.6-0.8-3.7-0.7-6.4c-0.8,1.3-1.8,3.3-2.2,5.8
		c-0.6,3.7,0.4,6.5-0.9,7.1c-0.8,0.4-2.3-0.4-2.8-0.6c-1.2-0.6-1.4-1.3-1.7-1.2c-1,0.4,2.8,10,0.9,11.2c-1.2,0.8-4.9-2.1-6.2-5.4
		c-0.5-1.3-1.4-3.6-0.6-5.6c0.1-0.3,0.2-0.5,0.1-0.6c-0.6-0.8-7.7,1.3-8.5,4.9c-0.4,2.1,1.7,2.7,1.8,5.8c0.1,3.4-2.4,3.8-2.7,7.6
		c-0.3,3.8,1.8,8,1.8,8c-2.5,0.2-4.1,1.2-4.9,1.8c-3.7,2.9-5,8.9-3.6,9.8c0.1,0.1,0.2,0.1,0.4,0.1c1.9,0.5,2.9-0.7,4.1-0.3
		c0.9,0.3,1.2,1.3,1.3,1.5c0.9,2.4-2.4,4.1-3.6,8.5c-1,3.6,0.7,4.4-0.4,6.7c-2,4.1-4.3-0.5-4.7-1.3c-0.3-0.6-6.4,4.9-3.8,4
		c1.1-0.4,1.4,3.2-1,12.5c-0.8,3.3-1.2,5.3-2.7,5.8c-1.6,0.6-3.9-0.5-4.9-2.2c-1.5-2.5,0.5-4.9-0.9-6.2c-1.4-1.4-5.2-0.8-6.7,1.3
		c-0.8,1.2-0.6,3.1,0,6.7c0.6,3.8,1.1,4.7,1.3,7.6c0.2,2.6,0.3,5-0.9,5.8c-1.4,0.8-2.8-1.3-5.4-0.9c-2.7,0.4-4.6,3.3-5.4,5.4
		c-0.4,1.1-0.6,2.2,0,8.5c0.5,6.1,0.9,7.3,0,8c-1.8,1.6-6.2-0.3-8-1.3c-1.1-0.6-2-1.4-2-1.4c-2.1-1.9-2.5-3.6-2.9-3.5
		c-0.6,0.1,0,3.8,0.4,9.8c0.3,5,0.1,6,0.9,8.5c1,3.3,1.9,3.4,2.7,5.8c1,3.3,0,5.2-1.8,12.5c-2.1,8.5-2.3,12.4-3.6,12.5
		c-1.6,0.1-2.6-5.9-4.5-5.8c-1.6,0.1-3.1,4.9-3.1,4.9c0,2.1,0.3,5.2,1.8,8.5c2.9,6.3,7.9,8,7.6,12.1c-0.2,1.9-1.4,3.3-2.3,4.3
		c-2.2-0.4-4.7-0.3-5.8,1c-1.1,1.3-0.6,3.6,0,4.9c1.5,3.4,5.2,3.4,5.4,5.4c0.3,2.7-6.3,4.1-6.2,7.6c0,1.2,0.8,1.3,2.2,4
		c1,2,3,5.7,1.8,7.6c-1.4,2.2-6.2,0.5-6.7,1.8c-0.7,1.8,7.9,6.6,7.6,7.1c-0.2,0.4-3.6-1.5-4-0.9c-0.4,0.6,2.2,4.3,5.7,6.7
		c0.5,0.3,1.1,0.7,1,0.9c0,0-0.1,0.5-8,0c0.5,1.8,1.2,4.7,2.2,8.5c2.2,8.1,2.5,9.1,2.2,11.2c-0.7,5-4.3,7.2-3.1,8.9
		c0.7,1,2.5,1.3,3.6,0.7c0.1,1.8,0.5,3.9,1.8,5.5c1.4,1.9,3,2,3.1,3.6c0.1,1.7-1.7,3.5-3.6,4c-1.6,0.4-3-0.1-3.6-0.4
		c-3.4-1.5-4.6-5.1-4.9-5c-0.4,0.2,2.2,5,3.6,11.6c1,4.8,0.4,5.8,1.8,7.6c2.4,3.2,7.1,3.7,9.8,4c4.6,0.5,9.7-0.4,9.8-0.4
		c0,1.7,0.3,3.9,1.8,5.4c2.4,2.5,6,1.1,7.1,3.1c0.8,1.4-0.6,2.6-1.8,7.6c-0.9,3.6-1.3,5.4-0.4,6.7c1.5,2.4,6.6,2.8,9.8,0.9
		c3.6-2.2,4.2-6.9,5.4-6.7c1.2,0.2,0.4,5.6,2.2,6.2c1.4,0.5,2.5-2.6,5.8-4c4.7-1.9,10.2,1,11.6,1.8c4.3,2.3,3.9,4.2,7.6,5.4
		c0.4,0.1,3,0.9,6,0.3v2l11.4,0.9c0,0,10.6-9.4,21.5-10.6c3.7-0.4,8.6-1,14-1.6l20.2-2c4.4-0.4,8.7-0.7,12.5-0.9
		c14.8-0.8,66.9-3.4,66.9-3.4l12-0.1l0,0.3h54v-0.6l10.6-0.1l-1.3-9.8l0-0.3h0l-0.1-1.9c0.1-0.1,0.2-0.3,0.3-0.4
		c1.8-3,1.8-6,1.7-7.2c0.3,0,0.6,0,0.8,0c0-1.2,0-2.4,0.1-3.6c-0.8-0.4-1.7-0.7-2.8-1.1c0.2-0.6-0.2-1.4,0.3-2.2
		c0.2-0.4,0.3-0.2,1.2-1c0.2-0.2,0.8-0.7,1.2-1.3c0.2-0.3,0.5-0.7,1.2-2.6c0.6-1.7,0.9-2.6,0.8-3.2c0-0.3-0.2-1.3-1-1.9
		c-1.1-0.9-2.5-0.3-2.9-1.1c-0.1-0.2-0.1-0.5-0.1-1.2c0.1-1.2,0.4-1.6,0.2-1.9c-0.3-0.4-1.2,0.3-1.6-0.1c-0.4-0.4,0.3-1.2-0.2-2
		c-0.1-0.1-0.1-0.2-0.2-0.3l-0.3-11.4h0.9l-0.1-1.4l-0.6-1.6l0.3-1.3l-1.8-0.2l-0.2-8h2.5l-1.3-86.8c2.8-1,6.7-3.6,6.9-4.4
		c0.3-1,0.7-3.9,0.7-4.7c0-0.5,0-2.5,0-3.9l1.4,0.5l6.5-16.5L300,181z M117,138c-0.4-0.3-0.8-0.7-1.1-1.4c-0.7-1.8,0.4-2.4-0.2-4.5
		c-0.7-2.1-2-1.9-3-4.2c-0.7-1.6-0.7-3.3-0.8-4.8c0-1.7,0.2-1.9,0-3.2c-0.3-1.6-1-3.5-1-3.5c0,0-4.5-1.2-4.8-3c-0.1-1,1-1.2,1.5-3.2
		c0.2-0.7,0.4-1.6,0-2.5c-0.8-1.8-3.3-1.3-3.8-2.8c-0.5-1.5,1.8-2.8,1.2-4c-0.5-1,3.4-0.8,3.4-0.8l8.5,9V138z M125.2,154h1.7v20.9
		h-1.7V154z M132.1,180.2l-6.9,0c0.1-0.5,0.2-1,0-1.1v-1.6h6.9L132.1,180.2z M129.5,174.9V154h1.2v20.9H129.5z M132.3,150l-7.1,0
		v-32.4l7.3,7.8L132.3,150z M200.7,25.6l23.1,0.8v17.4l-23.1-0.4V25.6z M200.7,48.8l23.1,0.7v18.2l-23.1-0.4V48.8z M186.8,112.3
		l21.2,0.8l-0.8,31.4c-0.1-0.1-0.2-0.1-0.3-0.2c-1.2-0.7-1.5-0.8-1.9-1.2c-0.4-0.5-0.3-0.6-0.6-0.8c-0.9-0.6-3,0.3-3.2,1.4
		c-0.1,0.7,0.5,1,0.3,1.4c-0.3,0.6-1.8,0.8-2.7,0.1c-0.1-0.1-0.9-0.6-0.8-1.3c0.1-0.7,1-0.7,1.1-1.4c0.1-0.5-0.3-1.1-0.7-1.4
		c-0.7-0.4-1.2,0.3-3,0.5c-0.8,0.1-1.4,0-2.1,0.4c-0.3,0.2-0.7,0.4-0.7,0.7c-0.2,0.8,1.6,1.6,1.4,2.1c-0.1,0.3-1.2-0.1-2.1,0.5
		c-0.5,0.4-0.7,0.9-0.8,1.1c-0.1,0.2-0.2,0.8,0,1.4c0.1,0.2,0.2,0.4,0.3,0.5h-1.7l0.3,1.6l-3.2,0V112.3z M205.8,156.9v4.3h-1.5v-4.4
		L205.8,156.9z M201.6,156.8v4.4h-1.2v-4.5L201.6,156.8z M197.7,156.7v4.5h-1.1v-4.6L197.7,156.7z M193.9,156.6v4.6h-1.2v-4.7
		L193.9,156.6z M190,154v7.2h-1.8V154H190z M162.4,116.4l12.7-4.1v37.7l-5.4,0l0,0l-2.3-1.5h-1.6c0.6-0.3,1.3-0.8,1.9-1.3
		c1-0.9,2-1.6,1.8-2.4c-0.2-0.8-1.6-1.2-2.3-1.3c-1.2-0.3-1.6,0-4.1-0.1c-0.3,0-0.6,0-0.8-0.1V116.4z M174,154v6.9l-1.5,0.2v-7H174z
		 M169.8,154v7.3l-1.2,0.1V154H169.8z M165.9,157.2v4.5l-1.1,0.1v-4.6H165.9z M176.6,270.6l-14.1,1.8v-54.9l16.3-3.1L176.6,270.6z
		 M210.3,269.5h-27.8v-54.6l28.4,1.7L210.3,269.5z M230.7,230.6c-0.9,2.9-0.3,6.1-0.2,6.7c0.1,0.5,0.2,0.9,0.2,1.2v6
		c-0.3,1-0.8,1.7-1.2,1.7c-0.6,0-1.3-1.2-1.4-1.6c-0.4-0.8-0.4-1.4-0.6-1.4c-0.3,0-1.1,2.7-0.5,5.8c0.6,3,1.9,3.4,2.2,6.2
		c0.3,2.6-0.4,5-1,5c-0.7,0.1-3.7-2.2-2.3-4.3c1.3-1.9-1.3-1.3-2.1-1.9c-1-0.8,0.3-1.5,0.3-4.5c0-1.7-0.7-3.3-1-3.2
		c-0.7,0.1-2.1,6.4,0.2,12c1.3,3.1,2.9,3.9,3.2,7.2c0.1,1,0,1.1,0,4.4l-9.6-1.1V216l13.6,1.8V230.6z M220,160.6v-3.7l0.3-3h1.1v6.8
		L220,160.6z M224.1,161.1V154h1.2v7.3L224.1,161.1z M228,161.5V154h1.1v7.7L228,161.5z M232.7,145.2h-2.8l0.1,1.7l1,2v1.4l-10.3,0
		l0.2-1.7h-1.1V148c0.1,0,0.1-0.1,0.2-0.1c0,0,1-0.7,0.9-1.1c-0.1-0.3-0.5-0.4-1-0.5v-30.8l13,2V145.2z M283.5,259.2l-20.5,0.6
		l-0.6-33.7h21.1V259.2z M303.2,205.2c-1.6,0.7-2.1,1.2-2.9,1.5l-0.1-4.8l0.2,0V196h4.3l0.4,0.1h0v4.8
		C305.2,201,305.7,204.1,303.2,205.2z"/>
	<g>
		<path class="st1" d="M211.7,346.2c-3,0.1-6.4,0.2-10,0.4"/>
		<path class="st1" d="M198.9,346.7c-8,0.3-17.2,0.7-26.7,1c-20.9,0.8-31.7,1.1-51.4,3.1h0c0,0,0,0,0,0c0.5,2.1,0.9,4-0.1,4.8
			c-1.3,1.1-4.7,0.2-5.8-1.8c-0.4-0.8-0.4-1.6-0.3-2.4c0,0,0,0,0,0c-2.2,0.2-4.6,0.5-7.1,0.8c0,0,0,0,0,0c-0.2,1-0.3,1.9-1.1,2.5
			c-0.6,0.4-1.4,0.7-2.8,0.4c-1.1-0.2-2.5-0.7-4.3-1.7c0.1-0.1,0.2-0.1,0.2-0.2c0,0,0,0,0,0c0,0-0.1,0-0.1,0c0,0,0,0,0,0
			c-0.3,0.1-1,0.5-1.7,0.9c-1,0.6-2,1.3-2.4,1.9c-1,1.4-0.8,3.5-0.4,5.3c0,0,0,0,0,0c0.4,1.8,1,3.2,0.9,3.2c-0.1,0-0.2-0.3-0.3-0.4
			c-0.3-0.6-0.8-1.1-1.5-1.5c-0.3-0.2-0.7-0.4-1.1-0.6c-0.4-0.2-0.8-0.3-1.2-0.4c-0.7-0.2-1.5-0.2-2.2-0.2c-0.7,0.1-1.3,0.2-1.9,0.5
			c-0.5,0.2-1,0.5-1.5,0.8c-1.4,1.1-2.4,2.6-2.4,4c0,0.6,0.1,1.1,0.3,1.6c0.1,0.2,0.2,0.4,0.4,0.6c0.7,1,1.7,1.8,2.4,2.8
			c0.6,0.8,1,1.6,0.9,2.6c0,0.1,0,0.2-0.1,0.3c0,0.2-0.1,0.3-0.1,0.5c-0.6,1.8-2.8,3.1-3.8,3.7c-1.1,0.6-2.3,1-3.3,1.2"/>
		<g>
			<path class="st1" d="M191.1,35.3l-0.7,39.8h42.2l2.5-38.3"/>
			<line class="st1" x1="232.7" y1="21.5" x2="232.7" y2="75.1"/>
			<polyline class="st1" points="185.4,17.6 237.8,18.6 240.9,36.8 			"/>
			<polygon class="st1" points="300.4,192.6 300.2,187.6 308.1,187.6 300.1,187.5 300.1,192.6 			"/>
			<path class="st1" d="M114.2,163c0,0.2,1.1,0.2,2.8,0.8v-1.6C115.2,162.7,114.2,162.8,114.2,163z"/>
			<polygon class="st1" points="132,192.6 132,185.2 132,185.2 132,192.6 			"/>
			<polygon class="st1" points="293,103.9 296,103.7 132.7,100.4 293,103.9 			"/>
			<polygon class="st1" points="132.6,108.9 132.3,108.9 132.6,108.9 132.6,116 126.7,108.9 126.7,108.9 132.6,116 			"/>
			<polygon class="st1" points="132.7,100.5 132.7,100.4 125.2,100.3 125.2,100.3 			"/>
			<path class="st1" d="M133.6,332.6l28.5-0.1c-0.1-0.1-0.2-0.3-0.3-0.4L133.6,332.6z"/>
			<path class="st0" d="M205.6,148.2c-0.8-0.8-1.2-1.2-1.5-1.1c-0.4,0.1-0.3,0.7-0.7,1.4h2.5C205.7,148.4,205.7,148.3,205.6,148.2z"
				/>
			<path class="st0" d="M198.1,148c-0.3-0.1-0.8-0.2-1.4,0c-0.4,0.1-0.6,0.3-0.8,0.5h3.4C198.9,148.2,198.5,148.1,198.1,148z"/>
			<line class="st1" x1="151" y1="12.2" x2="168.2" y2="12.4"/>
			<polygon class="st1" points="117,100.1 108.6,99.9 117,100.1 			"/>
			<polygon class="st1" points="236.3,305.7 236.2,306.7 241.9,306.6 244.3,301.1 239.3,301.1 239.3,305.7 			"/>
			<path class="st1" d="M229.1,346.2c-0.6,0-1.4,0.1-2.3,0.4v1.1l2.3,0L229.1,346.2z"/>
			<polygon class="st1" points="236.1,308.1 236.1,308.1 236,308.5 241.7,308.5 241.7,307.1 241.9,306.6 236.2,306.7 236.1,308.1 
							"/>
			<line class="st1" x1="226.8" y1="358.5" x2="226.8" y2="364.5"/>
			<polygon class="st1" points="239.4,354.2 239.4,353.8 226.8,354 226.8,356.2 238.5,356.2 			"/>
			<path class="st1" d="M235.5,347.9c-0.2,0-0.5,0.1-0.7,0l-5.7,0.4l0-0.6l-2.3,0v1.8h12.3l0-0.3v-1.6l-2.8,0
				C236.1,347.7,235.8,347.8,235.5,347.9z"/>
			<path class="st1" d="M228.7,330.9l-1.1,0c0.1,0.5,0.3,0.9,0.5,1.3l0.7,0L228.7,330.9z"/>
			<polyline class="st1" points="292.7,356.2 292.7,357.7 302.5,357.6 292.7,357.7 292.7,364.1 			"/>
			<polygon class="st1" points="235.5,338.7 239.7,338.6 240,337.3 240,336.7 235.6,336.8 240,336.7 239.7,332.2 235.5,332.3 			"/>
			<path class="st1" d="M235.5,338.8c0.5,0.6,0,1.5,0.7,2.2l3.4,0v-2l0.1-0.4l-4.2,0.1L235.5,338.8z"/>
			<polygon class="st1" points="235.5,332.3 239.7,332.2 239.6,330.5 239.9,330.1 235.5,330.2 			"/>
			<path class="st1" d="M239.6,341.7V341l-3.4,0C237,342,238.6,341.6,239.6,341.7z"/>
			<path class="st1" d="M239.4,344.8l0.3,0v-0.4c0,0.1-0.1,0.1-0.1,0.2C239.5,344.7,239.4,344.7,239.4,344.8z"/>
			<path class="st1" d="M236.3,347.6l2.8,0v-0.4l0.5-1.9v-0.5l-0.3,0C238.7,345.8,237.7,347,236.3,347.6z"/>
			<polygon class="st1" points="289.3,312.4 294.5,312.3 294.5,310 293.9,309.3 293.7,309.3 293.9,309.3 293.7,309.1 293.7,308.1 
				289.4,308.2 			"/>
			<polygon class="st1" points="241.5,314.9 235.6,315 241.5,314.9 241.7,313.6 241.7,313.2 235.6,313.3 241.7,313.2 241.7,308.5 
				236,308.5 235.6,311.7 235.5,330.2 239.9,330.1 240.9,328.8 240.9,328.5 235.6,328.5 240.9,328.5 240.7,324.4 235.6,324.4 
				240.7,324.4 240.6,322.7 240.7,322.1 235.6,322.2 240.7,322.1 241.2,320.7 241.2,316.7 235.6,316.9 241.2,316.7 241.2,316.5 			
				"/>
			<polygon class="st1" points="297.6,305 297.6,304.9 296.4,304.9 			"/>
			<polygon class="st1" points="289.3,312.4 290.3,313.5 290.3,313.5 294.6,313.4 294.5,312.3 289.3,312.4 			"/>
			<line class="st1" x1="226.8" y1="349.4" x2="226.8" y2="354"/>
			<polyline class="st1" points="286.5,300.5 289.4,304.9 289.4,306 289.4,306.2 293.3,306.2 293.1,305.9 293.1,304.9 290.8,304.9 
				290.8,300.5 			"/>
			<polyline class="st1" points="289.4,306.2 289.4,307.7 289.4,308.2 			"/>
			<polyline class="st1" points="293.7,308.1 293.7,306.7 293.3,306.2 			"/>
			<polygon class="st1" points="290.2,315.8 294.6,315.7 294.6,313.4 290.3,313.5 			"/>
			<path class="st1" d="M290.6,321.5c0.5,0.4,1,0.8,1.2,0.7c0.1-0.1,0-0.4-0.1-0.8L290.6,321.5L290.6,321.5z"/>
			<polyline class="st1" points="226.8,356.2 226.8,358.5 238.4,358.4 			"/>
			<path class="st1" d="M290.2,316.1l0.4,5.4l1.1,0c-0.1-0.4-0.1-0.8,0-1.4c0.1-0.3,0.3-0.9,0.9-1.3c0.2-0.2,0.7-0.5,1.2-0.5
				c0.3,0,0.6,0.1,0.8,0.3l0-2.8l-4.4,0.1L290.2,316.1z"/>
			<path class="st1" d="M206.2,345.1c-0.7,0.1-2.5,0.4-4.6,1.5c3.6-0.1,7-0.3,10-0.4C208.8,345.4,207.3,345,206.2,345.1z"/>
			<path class="st1" d="M228.1,332.3c0.1,0.2,0.2,0.4,0.4,0.6c0.1,0.2,0.2,0.3,0.3,0.5l0-1.1L228.1,332.3z"/>
			<polygon class="st1" points="137.7,157.2 137.2,155 137.2,174.9 138.4,174.9 138.4,157.2 			"/>
			<rect x="282.7" y="154" class="st1" width="1.2" height="20.9"/>
			<rect x="141.1" y="157.2" class="st1" width="1.5" height="17.7"/>
			<rect x="278.8" y="154" class="st1" width="1.1" height="20.9"/>
			<rect x="133.4" y="154" class="st1" width="1.1" height="20.9"/>
			<path class="st1" d="M146.3,147.2c-1.1-0.3-1.7,0.7-3,1.3h4.3C147.2,148,147,147.5,146.3,147.2z"/>
			<rect x="286.5" y="154" class="st1" width="1.5" height="20.9"/>
			<path class="st1" d="M156.4,147.3c-1.8-0.6-3.7,0-4.2,0.2c-0.9,0.3-1.4,0.7-1.9,1h7.9C157.7,148.1,157.2,147.6,156.4,147.3z"/>
			<rect x="145.3" y="157.2" class="st1" width="1.2" height="17.7"/>
			<polygon class="st1" points="196.3,296.9 197.5,296.9 198,280.1 196.8,280.1 			"/>
			<polygon class="st1" points="208.2,296.9 209.4,296.9 209.9,279.9 208.7,279.9 			"/>
			<polygon class="st1" points="204,296.9 205.6,296.9 206,279.9 204.5,280 			"/>
			<polygon class="st1" points="184.1,296.9 185.3,296.9 185.8,280.2 184.6,280.3 			"/>
			<polygon class="st1" points="188,296.9 189.8,296.9 190.3,280.2 188.5,280.2 			"/>
			<polygon class="st1" points="192.5,296.9 193.7,296.9 194.1,280.1 192.9,280.1 			"/>
			<polygon class="st1" points="200.2,296.9 201.4,296.9 201.8,280 200.6,280 			"/>
			<polygon class="st1" points="225.1,296.9 225.6,279.7 224.4,279.7 223.9,296.9 			"/>
			<path class="st1" d="M228,287.2l-0.3,9.7h1.1l0.1-2.9c-0.1-0.3-0.2-0.6-0.3-0.9C228.4,291.8,228.2,289.6,228,287.2z"/>
			<polygon class="st1" points="219.8,296.9 221.2,296.9 221.7,279.7 220.3,279.7 			"/>
			<polygon class="st1" points="215.9,296.9 217.1,296.9 217.6,279.8 216.4,279.8 			"/>
			<polygon class="st1" points="212.1,296.9 213.3,296.9 213.7,279.8 212.6,279.8 			"/>
			<polygon class="st1" points="172.2,296.9 173.8,296.9 174.2,280.4 172.7,280.4 			"/>
			<polygon class="st1" points="180.3,296.9 181.5,296.9 181.9,280.3 180.8,280.3 			"/>
			<path class="st1" d="M149.4,278.1l0,0.7c0.3,0.5,0.7,1.2,1.1,2.1l0.1-2.7L149.4,278.1z"/>
			<path class="st1" d="M155.5,202.7l19.1-0.3l-42.4,0.2c0,0.5,0.1,0.9,0.2,1.4c0.4,1.8,1,2,1.2,3.8c0.2,1.3,0.1,2.4,0,3
				c-0.2,1.5-0.7,1.8-1,3.2c-0.1,0.5-0.4,2,0,3.5c0,0,0.7,2.6,3.5,4.8c0,0,0.4,1.8,1,3c1.1,2.3,2.6,2,3,3.5c0,0,0.5,2-1.8,4.8
				l1.5,3.2c0,0-0.6,1.2-1.8,3.8c0,0,1.8,1.4,2.2,3c0.3,1.2-0.1,2.2-0.2,2.5c-0.3,0.7-0.5,1.1-3.8,3.5c0,0,0.3,1.7,1,3
				c0.9,1.7,1.8,1.4,2.5,3c0.2,0.5,0.7,1.6,0.2,2.8c-0.4,1-1.4,2-2.5,2c-1.9,0-3.5-2.9-4-2.5c-0.1,0.1-0.1,0.2-0.1,0.2
				c-0.6,3.7-1.2,4.1-0.9,6c0.5,3,2.2,3,2,5c-0.2,1.9-1.7,2.4-1.5,4c0,0.3,0.2,0.7,0.3,1l2.5,0c0.1-0.4,0.1-0.8,0.2-1.3
				c0.6-3.2,2.3-6.1,3-6c0.2,0,0.2,0.4,0.8,2.1c0,0.1,0.3,0.7,0.7,1.9c0.6,1.6,1,2.7,1.3,3.4l1.1,0c0.1-0.5,0.3-1.1,0.5-1.9
				c0.3-0.9,1.5-4.8,2.2-4.8c0.7,0.1,0.2,2.9,1.4,6.7l9.7,0.2L155.5,202.7z"/>
			<path class="st1" d="M176.6,302.6l4.5,0.1v1.8h-4.6l52.5,1.2l1.6,0v-1.7l-72.9-1.8l-2.9,0c-0.1,0.8-0.1,1.4-0.2,1.8l0.4,0
				c0.2-0.4,0.5-0.9,0.5-0.9c0,0,0,0.3,0,1l21.1,0.5L176.6,302.6z"/>
			<path class="st1" d="M153.2,278.2L153,287c0.3,1,0.7,2.5,1.1,4.5l0.4-13.3L153.2,278.2z"/>
			<polygon class="st1" points="158.4,280.7 157.2,280.7 157.1,278.2 157.1,278.2 156.6,296.9 158,296.9 			"/>
			<polygon class="st1" points="160.7,296.9 161.9,296.9 162.3,280.6 161.1,280.6 			"/>
			<polygon class="st1" points="176.4,296.9 177.6,296.9 178.1,280.4 176.9,280.4 			"/>
			<polygon class="st1" points="164.5,296.9 165.7,296.9 166.1,280.5 165,280.6 			"/>
			<polygon class="st1" points="168.4,296.9 169.6,296.9 170,280.5 168.8,280.5 			"/>
			<path class="st1" d="M239.8,228.9c1,1.9,0.7,4.1,0.7,4.6c-0.1,0.8-0.3,1.3-0.6,1.8l0.1,7.9c1.1,0.6,2.5,0.2,3.2,0.1
				c2.3-0.6,3.6-2.4,4-3c-0.2,1.6-0.7,4-2.2,6.2c-1.4,2-2.2,1.9-3,3.5c-1,1.9-0.4,3,0,9.3c0.2,3.4,0.2,5.5,0.5,5.5
				c0.2,0,0.4-1.1,1-2.8c1-2.5,2.8-5.2,3.5-5c0.7,0.2,0.5,3.5,0,5.8c-0.9,4.3-2.3,4.5-2.8,8.2c-0.4,3.2,0,6,0,6
				c0.2,1.4,0.4,2.2,0.5,2.9c0.6,0,1,0,1,0s2,10.5,0.3,12.9c-0.9,1.2-1.8,2.8-3,4.1h15.4l-0.5-76.1l30.6,0.7v75.4h2.3l-0.8-84.7
				l-1-0.8l1-1.4v-6.3l-1.6-1.9l-49,0.2L239.8,228.9z"/>
			<path class="st1" d="M247.8,249.4l1.3,0c0.5,0.6,0.4,1.4,0.2,2.1c-0.3,0.9-1.7,0.9-2.9,0.5"/>
			<polyline class="st1" points="247.8,249.4 247,249.5 247,246.7 249.4,246.7 			"/>
			<path class="st1" d="M247.8,249.4"/>
			<path class="st1" d="M246.4,252"/>
			<path class="st1" d="M252.5,252c-0.7,0.1-0.9-0.4-1.2-1.1c-0.4-0.9-0.4-2.1-0.3-2.9c0.1-0.7,0.4-1.4,1.1-1.5
				c0.7-0.1,1.4,1.2,1.4,2.7C253.6,250.4,253.4,251.9,252.5,252z"/>
			<polygon class="st1" points="250.2,226 254.8,226.2 256.6,228.5 255.5,228.6 255.4,238.3 249.4,238 249.1,228.7 247.8,228.7 			
				"/>
			<rect x="188.2" y="171.5" class="st1" width="1.8" height="3.3"/>
			<rect x="184.4" y="171.5" class="st1" width="1.2" height="3.3"/>
			<rect x="192.7" y="171.5" class="st1" width="1.2" height="3.3"/>
			<rect x="196.6" y="171.5" class="st1" width="1.1" height="3.3"/>
			<rect x="267" y="157.2" class="st1" width="1.2" height="17.7"/>
			<rect x="270.9" y="157.2" class="st1" width="1.4" height="17.7"/>
			<rect x="200.4" y="171.5" class="st1" width="1.2" height="3.3"/>
			<polygon class="st1" points="176.7,163.8 176.7,174.9 177.9,174.9 177.9,163.6 			"/>
			<polygon class="st1" points="180.5,163.3 180.5,174.9 181.7,174.9 181.7,163.1 			"/>
			<polygon class="st1" points="172.5,164.3 172.5,174.9 174,174.9 174,164.1 			"/>
			<rect x="243.8" y="154" class="st1" width="1.1" height="20.9"/>
			<line class="st1" x1="241.1" y1="174.9" x2="241.1" y2="154"/>
			<polyline class="st1" points="228.4,180.7 228.4,179 229.9,179 229.9,177.5 132.1,177.5 			"/>
			<polygon class="st1" points="228,163.7 228,174.9 229.2,174.9 229.2,163.9 			"/>
			<polygon class="st1" points="212.3,161.4 212.3,174.9 213.5,174.9 213.5,161.6 			"/>
			<rect x="204.3" y="171.5" class="st1" width="1.5" height="3.3"/>
			<polygon class="st1" points="216.2,162 216.2,174.9 217.3,174.9 217.3,162.1 			"/>
			<polygon class="st1" points="224.1,163.1 224.1,174.9 225.3,174.9 225.3,163.3 			"/>
			<polygon class="st1" points="298.5,104 296,104 296,104 			"/>
			<rect x="275" y="157.2" class="st1" width="1.2" height="17.7"/>
			<polygon class="st1" points="220,162.5 220,174.9 221.5,174.9 221.5,162.7 			"/>
			<rect x="208.5" y="171.5" class="st1" width="1.2" height="3.3"/>
			<polyline class="st1" points="298.8,104 298.6,109.5 295.9,109.5 295.8,113.5 297.7,113.9 297.7,175 297.7,179 298.6,179 
				298.6,181 300,181 			"/>
			<polygon class="st1" points="293,103.9 293,103.9 132.7,100.4 132.7,100.4 132.7,100.5 			"/>
			<path class="st1" d="M240.6,150.2l7.4,0l-0.3-1.7l1.7,0c-0.1-0.1-0.2-0.2-0.3-0.3c-0.1-0.4,0.2-0.6,0.6-1.9
				c0.4-1.2,0.4-1.8,0.7-1.8c0.4-0.1,0.6,0.7,1.1,0.7c0.5-0.1,0.8-1,0.8-1c0.2-0.7-0.1-0.8,0.1-1.3c0.3-0.9,2-1,3.1-1.1
				c0.6,0,0.9-0.1,1.1,0c0,0,1.2,0.4,2.1,2.7c0,0,1.3,0.7,2.4,0.5c0.6-0.2,0.5-0.5,1.5-1.1c0.8-0.6,1.6-0.8,2-0.9
				c0.6-0.1,1.6-0.4,2.9-0.1c1.3,0.3,2.2,1.1,2.6,1.4c0.6,0.5,0.4,0.6,1,1.1c0.7,0.7,1.5,1.4,2.5,1.5c0.9,0,1-0.5,2.2-0.6
				c0.8,0,1.3,0.1,1.8,0.2c1,0.3,1.6,0.4,1.8,0.9c0.2,0.6-0.6,1.4-1.1,1.8l-0.2,1.2l11.7,0V117v-3.8h3v-3.7l-52.4-0.2V150.2z"/>
			<polyline class="st1" points="298.2,201.9 298.2,201.9 297.1,204 297,209.9 298.3,210.4 298.3,211.3 297.3,211.9 299.2,296.9 			
				"/>
			<path class="st1" d="M300.4,210.1c-0.7,0.2-1.3,0.4-1.8,0.4v-3.3c0.8-0.1,1.3-0.3,1.7-0.5"/>
			<path class="st1" d="M267.8,148.2c-0.3,0-0.7,0-1.4,0.1c-0.9,0.2-1.4,0.4-1.7,0.6l5.1,0.1c-0.2-0.1-0.4-0.2-0.6-0.3
				C268.6,148.4,268.2,148.2,267.8,148.2z"/>
			<polygon class="st1" points="160.9,165.9 160.9,174.9 162.1,174.9 162.1,165.7 			"/>
			<rect x="149.1" y="157.2" class="st1" width="1.1" height="17.7"/>
			<polygon class="st1" points="164.8,165.3 164.8,174.9 165.9,174.9 165.9,165.2 			"/>
			<rect x="251.4" y="157.2" class="st1" width="1" height="17.7"/>
			<polygon class="st1" points="248.5,154 247.6,154 247.6,174.9 248.8,174.9 248.8,155.7 			"/>
			<rect x="156.8" y="157.2" class="st1" width="1.4" height="17.7"/>
			<rect x="263.2" y="157.2" class="st1" width="1.1" height="17.7"/>
			<rect x="255.1" y="157.2" class="st1" width="1.5" height="17.7"/>
			<path class="st1" d="M260,148c-0.3,0-0.5,0.1-1,0.2c-0.6,0.2-0.9,0.4-1.1,0.5l4.3,0.1c-0.1-0.1-0.3-0.1-0.5-0.2
				C261,148.3,260.6,148,260,148z"/>
			<rect x="153" y="157.2" class="st1" width="1.2" height="17.7"/>
			<rect x="259.3" y="157.2" class="st1" width="1.2" height="17.7"/>
			<polygon class="st1" points="168.6,164.8 168.6,174.9 169.8,174.9 169.8,164.7 			"/>
			<polygon class="st1" points="287.7,179 289,179 289.4,177.5 238.2,177.5 238.2,179 239.3,179 239.3,180.7 228.4,180.7 294.6,181 
				287.7,181 			"/>
			<polyline class="st1" points="158.3,141.4 158.3,109 158.3,109 			"/>
			<path class="st1" d="M132.3,150l3.8,0l-0.3-1.5h3.4c-0.8-0.3-1.4-0.8-1.9-1.3c-0.3-0.4-0.9-1-0.8-1.8c0.1-1.2,1.7-1.9,1.9-2
				c0.1-0.1,0.8-0.3,1.8-0.3c1.1,0.1,1.3,0.6,2.4,0.9c0.2,0.1,2.3,0.6,3.2-0.4c0.7-0.8,0-1.8,0.8-2.7c0.6-0.7,1.7-0.9,2.5-0.6
				c0.4,0.1,0.6,0.4,1.1,0.9c1,1,0.9,1.4,1.5,1.9c0.5,0.3,0.7,0.2,2.4,0.4c2.4,0.3,3.1,0.6,3.5,0.2c0.4-0.5-0.3-1.3,0.2-2
				c0.1-0.2,0.3-0.3,0.5-0.4"/>
			<polyline class="st1" points="158.3,109 132.6,108.9 132.6,116 132.5,125.3 			"/>
			<polygon class="st1" points="236.1,308.1 236.1,308.1 236.1,308.1 			"/>
			<path class="st1" d="M175.7,323.2c0.1,0.1,0.4,0.4,0.9,0.7l3.1,0.1c0-0.5,0-1.1,0.4-1.8c0.2-0.4,0.5-0.8,0.8-1.1l-7.4-0.2
				C174.1,321.2,174.5,322.1,175.7,323.2z"/>
			<path class="st1" d="M170.4,323.7l2.3,0.1c0,0,0.1,0,0.1-0.1c0.2-0.5-1.9-1.5-1.8-2.3c0.1-0.3,0.4-0.5,0.8-0.6l-5.8-0.1
				c0.7,0.3,0.9,0.7,2.3,1.8C169.2,323.2,169.9,323.5,170.4,323.7z"/>
			<path class="st1" d="M186.4,322.9c1.3,0.7,2.7,0.4,3.1,0.3c1.2-0.3,1.1-0.8,2.3-1.1c2.1-0.7,3.2,0.6,4.4-0.2
				c0.2-0.1,0.4-0.3,0.4-0.5l-12.2-0.3c0.1,0.2,0.3,0.4,0.6,0.6C185.5,322.3,185.9,322.6,186.4,322.9z"/>
			<path class="st1" d="M171.1,323.9c0.5,0.1,1.3,0.1,1.6-0.1l-2.3-0.1C170.6,323.8,170.9,323.9,171.1,323.9z"/>
			<path class="st1" d="M164.7,329c0-0.8-2-0.9-4.3-2.7c-0.2-0.1-0.4-0.3-0.6-0.5l-6.6-0.2c-0.6,2.5-1.2,3.3-2.1,3.8
				c-1.6,0.8-2.7-0.3-8.9-0.9c-2.8-0.3-4.2-0.4-5.4,0c-0.7,0.2-1.3,0.5-2,1.1l29.1,0.4C164.3,329.7,164.7,329.3,164.7,329z"/>
			<path class="st1" d="M179.3,324.8c0.3-0.2,0.3-0.5,0.3-0.9l-3.1-0.1C177.5,324.5,178.7,325.2,179.3,324.8z"/>
			<path class="st1" d="M163.3,320.6c0.1-0.3,1.3-0.4,2.5,0c0.1,0,0.1,0,0.2,0.1l5.8,0.1c0.4-0.1,0.8-0.2,1.2-0.1
				c0.2,0,0.3,0.1,0.4,0.1l7.4,0.2c0.8-0.9,1.8-1.5,2.6-1.2c0.5,0.2,0.5,0.5,1.1,1.3l12.2,0.3c0.2-0.4,0.2-1,1-1.9
				c0.1-0.1,0.2-0.3,0.5-0.5l-43.9-0.6c0,0.3-0.1,0.5-0.1,0.8c-0.1,0.4-0.1,0.9-0.2,1.3L163.3,320.6
				C163.3,320.6,163.3,320.6,163.3,320.6z"/>
			<path class="st1" d="M206.1,314.8c0.2-1.2-0.7-2.1-0.2-2.6c0.3-0.3,0.7-0.1,1.6-0.1c2-0.1,2.5-1.3,3.8-1.1
				c0.4,0.1,0.9,0.5,2.1,1.4c1.9,1.6,2.1,2,3,2.3c0.8,0.2,0.8-0.1,2.3,0c1.9,0.1,2.3,0.6,2.8,0.3c1-0.7-0.3-3.3,0.5-3.8
				c0.6-0.4,2.1,0.5,3,1.4c1.3,1.4,0.8,2.2,1.9,3.2c0.5,0.5,1.1,0.7,1.6,0.8l-0.1-5.7L228,310l-72.9-1.1c-0.1,1.8-0.3,3.9-0.6,6.2
				l50.7,1.1C205.7,315.9,206,315.4,206.1,314.8z"/>
			<path class="st1" d="M164.8,322.4c-0.3-1.2-1.5-1.5-1.4-1.8l-9.3-0.2c-0.1,1.1-0.3,2-0.4,2.8l11.2,0.3
				C164.9,323.1,164.8,322.5,164.8,322.4z"/>
			<path class="st1" d="M201.1,317.3c1.3-0.2,1.6,0.4,2.7,0c0.5-0.2,1.1-0.5,1.6-1l-50.7-1.1c-0.1,1-0.2,2.1-0.4,3.2l43.9,0.6
				C198.7,318.3,199.7,317.5,201.1,317.3z"/>
			<path class="st1" d="M158.3,323.9c0.1-0.2,0.6-0.1,2.1,0.1c3.3,0.5,3.8,0.3,4.1,0c0.1-0.1,0.2-0.3,0.2-0.5l-11.2-0.3
				c-0.2,0.9-0.3,1.7-0.5,2.4l6.6,0.2C158.9,325.1,158.2,324.2,158.3,323.9z"/>
			<path class="st1" d="M155.5,304c0,1-0.1,2.7-0.3,5"/>
			<path class="st1" d="M228.7,328.8c-0.5,0.4-0.9,0.6-1,1.1c-0.1,0.3-0.1,0.6-0.1,0.9l1.2,0L228.7,328.8z"/>
			<path class="st1" d="M228.7,330.9l-1.2,0c0,0,0,0.1,0,0.1L228.7,330.9L228.7,330.9z"/>
			<path class="st1" d="M154.6,304.6c0.1,0,0.3-0.3,0.4-0.6l-0.4,0C154.5,304.4,154.5,304.6,154.6,304.6z"/>
			<polygon class="st1" points="217.6,279.8 217.6,279.6 216.4,279.5 216.4,279.8 			"/>
			<polygon class="st1" points="209.9,279.9 209.9,279.4 208.7,279.4 208.7,279.9 			"/>
			<polygon class="st1" points="201.8,280 201.8,279.2 200.7,279.2 200.6,280 			"/>
			<polygon class="st1" points="206,279.9 206,279.3 204.5,279.3 204.5,280 			"/>
			<polygon class="st1" points="221.7,279.7 221.7,279.7 220.3,279.6 220.3,279.7 			"/>
			<polygon class="st1" points="213.7,279.8 213.7,279.5 212.6,279.5 212.6,279.8 			"/>
			<polygon class="st1" points="198,280.1 198,279.1 196.8,279.1 196.8,280.1 			"/>
			<polygon class="st1" points="158.4,280.7 158.5,278.3 157.1,278.2 157.2,280.7 			"/>
			<polygon class="st1" points="181.9,280.3 182,278.8 180.8,278.8 180.8,280.3 			"/>
			<polygon class="st1" points="178.1,280.4 178.1,278.7 176.9,278.7 176.9,280.4 			"/>
			<polygon class="st1" points="174.2,280.4 174.3,278.6 172.7,278.6 172.7,280.4 			"/>
			<polygon class="st1" points="194.1,280.1 194.2,279.1 193,279 192.9,280.1 			"/>
			<polygon class="st1" points="166.1,280.5 166.2,278.4 165.1,278.4 165,280.6 			"/>
			<path class="st1" d="M238.2,227.2c0.4,0.3,0.7,0.5,0.7,0.6c0.4,0.4,0.6,0.7,0.8,1.1"/>
			<path class="st1" d="M239.9,235.3c-0.3,0.7-0.7,1.3-0.9,2.7c-0.2,1.3-0.7,3.9,0.8,5c0.1,0.1,0.2,0.1,0.3,0.2"/>
			<polygon class="st1" points="162.3,280.6 162.4,278.4 161.2,278.3 161.1,280.6 			"/>
			<polyline class="st1" points="159.9,212.2 180,208.7 213.9,208.7 230.6,212.6 229.1,211.3 230.7,210.2 230.7,203.7 230.1,202.2 
				174.6,202.4 155.5,202.7 			"/>
			<polygon class="st1" points="185.8,280.2 185.8,278.9 184.6,278.8 184.6,280.3 			"/>
			<polygon class="st1" points="190.3,280.2 190.3,279 188.5,278.9 188.5,280.2 			"/>
			<polygon class="st1" points="170,280.5 170.1,278.5 168.9,278.5 168.8,280.5 			"/>
			<polyline class="st1" points="188.2,161.2 188.2,171.5 190,171.5 190,161.2 			"/>
			<rect x="184.4" y="154" class="st1" width="1.2" height="17.6"/>
			<path class="st1" d="M210.3,148c-0.3-0.1-0.5,0.2-0.8,0.5h1.3C210.7,148.2,210.5,148,210.3,148z"/>
			<polygon class="st1" points="176.7,163.8 177.9,163.6 177.9,154 176.7,154 			"/>
			<polyline class="st1" points="162.1,165.7 162.1,157.2 160.9,157.2 160.9,165.9 			"/>
			<line class="st1" x1="160.9" y1="165.9" x2="162.1" y2="165.7"/>
			<polyline class="st1" points="172.5,161 172.5,164.3 174,164.1 174,160.8 			"/>
			<polyline class="st1" points="168.6,161.4 168.6,164.8 169.8,164.7 169.8,161.3 			"/>
			<polyline class="st1" points="164.8,161.8 164.8,165.3 165.9,165.2 165.9,161.7 			"/>
			<polygon class="st1" points="180.5,163.3 181.7,163.1 181.7,154 180.5,154 			"/>
			<polyline class="st1" points="192.7,161.2 192.7,171.5 193.9,171.5 193.9,161.2 			"/>
			<polyline class="st1" points="228,161.5 228,163.7 229.2,163.9 229.2,161.7 			"/>
			<polyline class="st1" points="196.6,161.2 196.6,171.5 197.7,171.5 197.7,161.2 			"/>
			<polyline class="st1" points="224.1,161.1 224.1,163.1 225.3,163.3 225.3,161.2 			"/>
			<polygon class="st1" points="239.9,165.4 240.6,165.5 240.6,154 239.9,154 			"/>
			<path class="st1" d="M219.7,148c-0.5,0.3-0.9,0.3-2,0.5c-0.2,0-0.3,0.1-0.4,0.1h2.4"/>
			<polyline class="st1" points="220,160.6 220,162.5 221.5,162.7 221.5,160.8 			"/>
			<polyline class="st1" points="200.4,161.2 200.4,171.5 201.6,171.5 201.6,161.2 			"/>
			<polygon class="st1" points="216.2,162 217.3,162.1 217.3,157.1 216.2,157.1 			"/>
			<polyline class="st1" points="204.3,161.2 204.3,171.5 205.8,171.5 205.8,161.2 			"/>
			<polygon class="st1" points="212.3,161.4 213.5,161.6 213.5,157 212.3,157 			"/>
			<polygon class="st1" points="208.5,171.5 209.7,171.5 209.7,157 208.5,156.9 			"/>
			<path class="st1" d="M126.8,174.9"/>
			<path class="st1" d="M126.8,154"/>
			<line class="st1" x1="126.8" y1="174.9" x2="129.5" y2="174.9"/>
			<polyline class="st1" points="133.4,174.9 133.4,154 130.7,154 			"/>
			<line class="st1" x1="134.5" y1="174.9" x2="137.2" y2="174.9"/>
			<polyline class="st1" points="137.2,155 137,154 134.5,154 134.5,174.9 			"/>
			<line class="st1" x1="141.1" y1="157.2" x2="138.4" y2="157.2"/>
			<line class="st1" x1="138.4" y1="174.9" x2="141.1" y2="174.9"/>
			<line class="st1" x1="145.3" y1="157.2" x2="142.6" y2="157.2"/>
			<line class="st1" x1="142.6" y1="174.9" x2="145.3" y2="174.9"/>
			<line class="st1" x1="149.1" y1="157.2" x2="146.4" y2="157.2"/>
			<line class="st1" x1="146.4" y1="174.9" x2="149.1" y2="174.9"/>
			<line class="st1" x1="153" y1="157.2" x2="150.3" y2="157.2"/>
			<line class="st1" x1="150.3" y1="174.9" x2="153" y2="174.9"/>
			<line class="st1" x1="156.8" y1="157.2" x2="154.1" y2="157.2"/>
			<line class="st1" x1="154.1" y1="174.9" x2="156.8" y2="174.9"/>
			<line class="st1" x1="160.9" y1="157.2" x2="158.2" y2="157.2"/>
			<line class="st1" x1="158.2" y1="174.9" x2="160.9" y2="174.9"/>
			<line class="st1" x1="164.8" y1="157.2" x2="162.1" y2="157.2"/>
			<line class="st1" x1="162.1" y1="174.9" x2="164.8" y2="174.9"/>
			<polyline class="st1" points="168.2,154 166.8,157.2 165.9,157.2 			"/>
			<line class="st1" x1="165.9" y1="174.9" x2="168.6" y2="174.9"/>
			<line class="st1" x1="172.5" y1="154" x2="169.8" y2="154"/>
			<line class="st1" x1="169.8" y1="174.9" x2="172.5" y2="174.9"/>
			<line class="st1" x1="174" y1="174.9" x2="176.7" y2="174.9"/>
			<line class="st1" x1="177.9" y1="174.9" x2="180.5" y2="174.9"/>
			<line class="st1" x1="181.7" y1="174.9" x2="184.4" y2="174.9"/>
			<line class="st1" x1="185.6" y1="174.9" x2="188.2" y2="174.9"/>
			<line class="st1" x1="190" y1="174.9" x2="192.7" y2="174.9"/>
			<line class="st1" x1="193.9" y1="174.9" x2="196.6" y2="174.9"/>
			<line class="st1" x1="197.7" y1="174.9" x2="200.4" y2="174.9"/>
			<line class="st1" x1="201.6" y1="174.9" x2="204.3" y2="174.9"/>
			<line class="st1" x1="205.8" y1="174.9" x2="208.5" y2="174.9"/>
			<line class="st1" x1="209.7" y1="174.9" x2="212.3" y2="174.9"/>
			<line class="st1" x1="213.5" y1="174.9" x2="216.2" y2="174.9"/>
			<line class="st1" x1="217.3" y1="174.9" x2="220" y2="174.9"/>
			<line class="st1" x1="221.5" y1="174.9" x2="224.1" y2="174.9"/>
			<line class="st1" x1="225.3" y1="174.9" x2="228" y2="174.9"/>
			<polyline class="st1" points="229.2,174.9 229.9,174.9 229.9,174.1 231,172.5 			"/>
			<polygon class="st1" points="239.9,154 238.8,154 238.2,174.7 238.2,174.9 239.9,174.9 239.9,165.4 			"/>
			<line class="st1" x1="241.1" y1="174.9" x2="243.8" y2="174.9"/>
			<line class="st1" x1="244.9" y1="174.9" x2="247.6" y2="174.9"/>
			<line class="st1" x1="248.8" y1="174.9" x2="251.4" y2="174.9"/>
			<line class="st1" x1="252.4" y1="174.9" x2="255.1" y2="174.9"/>
			<polyline class="st1" points="186.8,150.1 175.2,150.1 169.8,150.1 169,152 190.4,152 190,150.1 			"/>
			<line class="st1" x1="221.5" y1="154" x2="224.1" y2="154"/>
			<path class="st1" d="M221.5,154"/>
			<polyline class="st1" points="229.2,154 231,154 231,152 220.5,152 220.3,154 			"/>
			<line class="st1" x1="225.3" y1="154" x2="228" y2="154"/>
			<polyline class="st1" points="220.7,150.2 220.5,152 231,152 231,150.2 			"/>
			<polyline class="st1" points="190,154 190.8,154 190.4,152 169,152 168.2,154 168.6,154 			"/>
			<polyline class="st1" points="174,154 176.7,154 177.9,154 180.5,154 181.7,154 184.4,154 185.6,154 188.2,154 			"/>
			<polyline class="st1" points="125.2,150 125.2,152 136.6,152 			"/>
			<line class="st1" x1="136.6" y1="152" x2="136.1" y2="150"/>
			<polygon class="st1" points="238.9,152 248.2,152 247.9,150.3 240.6,150.2 239,150.2 			"/>
			<line class="st1" x1="137" y1="154" x2="136.6" y2="152"/>
			<line class="st1" x1="134.5" y1="154" x2="137" y2="154"/>
			<line class="st1" x1="133.4" y1="154" x2="134.5" y2="154"/>
			<line class="st1" x1="130.7" y1="154" x2="133.4" y2="154"/>
			<line class="st1" x1="126.8" y1="154" x2="129.5" y2="154"/>
			<polygon class="st1" points="238.8,154 239.9,154 240.6,154 241.1,154 243.8,154 244.9,154 247.6,154 248.5,154 248.2,152 
				238.9,152 			"/>
			<line class="st2" x1="169" y1="152" x2="190.4" y2="152"/>
			<line class="st2" x1="248.2" y1="152" x2="238.9" y2="152"/>
			<line class="st2" x1="231" y1="152" x2="220.5" y2="152"/>
			<path class="st1" d="M313.8,99.3l-213.7-3.4c-0.1,2.1,0,2.8,0.6,3.4c0.2,0.2,0.5,0.4,0.8,0.5l7.1,0.1l0,0l0,0l0,0l8.5,0.2l0,0
				l8.2,0.2v0l7.5,0.2l0,0l163.3,3.3h0l0,0l2.8,0.3"/>
			<line class="st2" x1="123.1" y1="77.5" x2="122.2" y2="77.5"/>
			<polygon class="st1" points="197.7,21.8 195.3,21.8 195.3,72.3 229.4,72.7 229.1,32.7 229,22.6 			"/>
			<path class="st1" d="M196,148.5c-0.3,0.3-0.5,0.6-1,0.9c-0.8,0.4-1.9,0.3-2.6-0.1c-0.2-0.1-0.6-0.3-1-0.8"/>
			<path class="st1" d="M125.2,154"/>
			<polyline class="st1" points="125.2,177.5 125.1,177.5 125.2,174.9 			"/>
			<path class="st1" d="M117,138c0.7,0.6,1.7,1,2.9,2.6c0.7,0.9,1.9,2.4,2,4.5c0.1,1.7-0.6,1.9-0.8,4c-0.1,0.7,0,1.3,0.8,5
				c1,4.6,1.3,5.4,0.8,6.2c-0.4,0.6-1.5,0.9-3.5,1.5c-0.8,0.2-1.5,0.4-2.2,0.5v1.6c0.1,0.1,0.3,0.1,0.4,0.2c1.6,0.7,1.7,1.2,3,1.5
				c1.6,0.4,1.9-0.2,2.8,0.2c1.6,0.8,1.9,3.6,1.5,5.5c-0.1,0.5-0.4,1.9-1.5,3c-0.7,0.7-1.2,0.8-2.5,1.5c-1.3,0.7-3.8,2.1-3.7,3.2
				c0.1,0.4,0.5,0.8,1.1,1.1l4.9,0c1.2-0.6,1.8-1.4,2.2-1.1"/>
			<path class="st1" d="M117,138"/>
			<polyline class="st1" points="125.2,117.6 125.2,108.9 117,108.9 117,108.9 			"/>
			<polyline class="st1" points="125.2,154 125.2,152 125.2,150 			"/>
			<polygon class="st1" points="125.2,100.3 125.2,100.3 125.2,100.3 117,100.1 117,100.1 117,100.1 			"/>
			<path class="st1" d="M162.4,143.3c-0.7-0.1-1-0.2-1.2-0.5c-0.5-0.6-0.1-1.4-0.6-1.8c-0.2-0.2-0.5-0.1-1.1,0
				c-0.4,0.1-0.9,0.2-1.2,0.4c-0.2,0.1-0.3,0.2-0.5,0.4c-0.5,0.7,0.2,1.5-0.2,2c-0.4,0.4-1.1,0.1-3.5-0.2c-1.7-0.2-1.9-0.1-2.4-0.4
				c-0.6-0.4-0.6-0.8-1.5-1.9c-0.5-0.5-0.8-0.8-1.1-0.9c-0.8-0.3-1.9-0.1-2.5,0.6c-0.8,0.9-0.1,1.9-0.8,2.7c-0.9,1-3.1,0.4-3.2,0.4
				c-1.1-0.3-1.3-0.8-2.4-0.9c-1-0.1-1.7,0.2-1.8,0.3c-0.2,0.1-1.7,0.7-1.9,2c-0.1,0.8,0.5,1.4,0.8,1.8c0.5,0.5,1.1,1,1.9,1.3
				c0.8,0.3,1.8,0.5,2.7,0.4c0.5-0.1,0.9-0.2,1.3-0.4c1.3-0.6,2-1.6,3-1.3c0.7,0.2,0.9,0.8,1.3,1.3c0.2,0.3,0.4,0.5,0.9,0.6
				c0.7,0.2,1.1-0.2,1.8-0.6c0.5-0.3,1.1-0.7,1.9-1c0.5-0.2,2.4-0.8,4.2-0.2c0.8,0.3,1.3,0.7,1.7,1.2c0.6,0.7,1,1.5,2.2,1.8
				c1.1,0.3,2.1-0.2,4.1-1c0.4-0.2,1-0.4,1.6-0.8"/>
			<path class="st1" d="M219.7,146.3c-0.5-0.1-1.1-0.1-1.7-0.1c-1.7,0-2.3,0.2-3-0.3c-0.2-0.1-0.5-0.4-1-1c-0.8-0.9-0.8-1.1-1.2-1.3
				c-0.7-0.4-1.8-0.5-2.1,0c-0.2,0.3,0,0.5-0.2,0.9c-0.3,0.6-1.2,0.8-1.8,0.7c-0.3,0-0.4-0.1-1.4-0.7"/>
			<path class="st1" d="M205.8,148.5c0.6,0.7,0.9,1.1,1.4,1.1c0.2,0,0.4,0,0.7-0.1c0.7-0.2,1.2-0.7,1.5-1c0.3-0.3,0.5-0.6,0.8-0.5
				c0.2,0,0.3,0.3,0.4,0.5c0.2,0.5,0.3,1.1,0.9,1.4c0.3,0.1,0.7,0.1,1.4-0.1c1.4-0.3,1.6-0.6,2.9-1c0.3-0.1,0.7-0.2,1.4-0.3
				c0.1,0,0.3,0,0.4-0.1c1-0.2,1.5-0.2,2-0.5"/>
			<path class="st1" d="M199.3,148.5c0.1,0.1,0.3,0.2,0.4,0.3c1,0.6,1,0.8,1.4,0.9c0.7,0.1,1.4-0.2,1.8-0.6c0.2-0.2,0.3-0.3,0.4-0.5
				"/>
			<path class="st1" d="M191.3,148.5c0.3,0.5,0.8,0.8,1,0.8c0.8,0.4,1.8,0.5,2.6,0.1c0.5-0.3,0.7-0.6,1-0.9"/>
			<path class="st1" d="M249.3,148.6c0.3,0.2,0.8,0.4,1.9,0.9c1.9,0.9,2.1,1.2,2.2,1.4c0.1,0.1,0.1,0.1,0.5,1.9
				c0.2,0.8,0.3,1.2,0.5,1.2c0.2,0,0.4-0.7,0.5-1c0.2-0.7,0.2-1,0.3-2.1c0.1-1.1,0.3-1.3,0.4-1.4c0.3-0.3,0.6-0.1,1.3-0.2
				c0.5-0.1,0.7-0.3,1-0.5c0.3-0.2,0.6-0.3,1.1-0.5c0.5-0.2,0.7-0.2,1-0.2c0.6,0,1,0.3,1.7,0.6c0.2,0.1,0.3,0.2,0.5,0.2
				c0.5,0.2,0.8,0.3,1.2,0.4c0.5,0,0.8-0.1,1.2-0.3c0.4-0.2,0.9-0.4,1.7-0.6c0.7-0.2,1.1-0.2,1.4-0.1c0.5,0.1,0.8,0.2,1.4,0.5
				c0.2,0.1,0.4,0.2,0.6,0.3c0.2,0.1,0.5,0.3,0.7,0.4c1.3,0.9,1.2,1,1.7,1.3c0.9,0.4,1.8,0.2,3.6-0.3c0.8-0.2,1.3-0.5,2-0.7
				c0.5-0.2,0.7-0.3,0.8-0.4"/>
			<path class="st1" d="M246.4,252"/>
			<path class="st1" d="M246.4,252c1.2,0.4,2.6,0.4,2.9-0.5c0.2-0.6,0.3-1.5-0.2-2.1l-1.3,0"/>
			<path class="st1" d="M252.2,246.5c-0.8,0.1-1,0.8-1.1,1.5c-0.2,0.9-0.1,2,0.3,2.9c0.3,0.7,0.5,1.2,1.2,1.1c0.8-0.1,1.1-1.7,1-2.9
				C253.5,247.7,252.9,246.4,252.2,246.5z"/>
			<path class="st1" d="M255.7,246.5c-0.4,0-0.8,0.6-0.9,1.1c-0.1,0.7,0.3,1.6,0.9,1.6c0.3,0,1-0.7,1.1-0.8
				c-0.1-0.3-0.1-0.5-0.2-0.6C256.5,247.4,256.2,246.5,255.7,246.5z"/>
			<path class="st1" d="M254.9,251.1"/>
			<path class="st1" d="M254.9,251.1c0.2,0.6,0.6,1,0.9,1c0.4,0,0.6-0.6,0.8-1c0.5-1,0.4-2.1,0.2-2.7"/>
			<polygon class="st1" points="256.9,248.5 256.9,248.5 256.9,248.5 			"/>
			<polyline class="st1" points="300,181 298.6,181 298.6,181 294.6,181 228.4,180.7 228.4,180.7 228.4,180.7 132.1,180.2 			"/>
			<line class="st1" x1="305.2" y1="196.2" x2="308" y2="197.1"/>
			<path class="st1" d="M125.2,180.2c-0.2,0.9-0.6,2.1,0,2.9c0.7,0.9,1.8,0.4,2.5,1.2c0.2,0.3,0.3,0.5,0.3,0.9l4.1,0.1l0,0h0
				l168,2.3l8.1,0.1l-2.3,8.5h-1"/>
			<path class="st1" d="M121.9,180.5c0.4-0.1,0.7-0.2,1-0.4l-4.9,0C119.1,180.6,120.6,180.9,121.9,180.5z"/>
			<path class="st1" d="M129,195.5c0,1.3-0.1,2,0.4,2.2c0.9,0.4,3-1.2,3-1.2c0,0-0.1,0.9-0.2,2.2h168h-168c0,0.6-0.1,1.4-0.1,2.1
				c0,0.8,0,1.3,0,1.9l42.4-0.2l55.5-0.3l-0.2-0.6h9.4l-0.4,0.6l0.4,0l49-0.2l-0.3-0.4l10.1,0.3l2.1,0"/>
			<path class="st1" d="M300.5,196l-0.1-3.4h-0.3H132l0,0h-3.4c0.1,0.5,0.2,1,0.3,1.7c0.1,0.5,0.1,0.9,0.1,1.3L300.5,196z"/>
			<polyline class="st1" points="305.2,196 305.8,196 308.1,187.6 300.2,187.6 300.4,192.6 300.5,196 			"/>
			<path class="st1" d="M127.9,185.1c0,0.7-0.5,1.6-0.5,3.1c0,2,0.7,2.5,1.2,4.3"/>
			<line class="st2" x1="222.5" y1="351.2" x2="222.5" y2="351"/>
			<line class="st2" x1="218.4" y1="349.9" x2="218.4" y2="351.2"/>
			<line class="st2" x1="189.6" y1="347.1" x2="189.6" y2="347.1"/>
			<line class="st2" x1="114" y1="351.6" x2="114" y2="351.6"/>
			<polygon class="st1" points="260.2,293.6 259.9,268.8 259.9,268.8 259.8,261.5 259.8,261.5 259.3,222.1 287,223.3 287,293.6 			
				"/>
			<polygon class="st1" points="259.8,261.5 259.9,268.8 259.9,268.8 259.8,261.5 			"/>
			<line class="st2" x1="213.6" y1="212.4" x2="213.6" y2="212.4"/>
			<line class="st2" x1="213.6" y1="271.5" x2="213.6" y2="271.5"/>
			<line class="st2" x1="180.4" y1="211.5" x2="180.4" y2="211.5"/>
			<polygon class="st1" points="249.1,228.1 249.1,228.7 249.4,238 255.4,238.3 255.5,228.6 255.5,228.1 			"/>
			<polygon class="st1" points="254,235.2 250.7,235.2 250.6,229.8 254.3,230 			"/>
			<polygon class="st1" points="250.7,235.2 254,235.2 254.3,230 250.6,229.8 			"/>
			<polyline class="st1" points="117,108.9 125.2,108.9 126.7,108.9 126.7,108.9 126.7,108.9 132.3,108.9 132.6,108.9 158.3,109 
				240.6,109.3 293,109.5 293,103.9 132.7,100.5 125.2,100.3 117,100.1 108.6,99.9 			"/>
			<polygon class="st1" points="295.9,109.5 298.6,109.5 298.8,104 298.8,104 298.5,104 296,104 			"/>
			<polygon class="st1" points="286.5,174.9 283.8,174.9 282.7,174.9 280,174.9 278.8,174.9 276.2,174.9 275,174.9 272.3,174.9 
				270.9,174.9 268.2,174.9 267,174.9 264.3,174.9 263.2,174.9 260.5,174.9 259.3,174.9 256.6,174.9 255.1,174.9 252.4,174.9 
				251.4,174.9 248.8,174.9 247.6,174.9 244.9,174.9 243.8,174.9 241.1,174.9 239.9,174.9 238.2,174.9 238.2,177.5 289.4,177.5 
				290,174.9 288,174.9 			"/>
			<polyline class="st1" points="230,146.8 239,146.8 239,145.2 232.7,145.2 			"/>
			<polyline class="st1" points="239,150.2 239,147.7 239,146.8 230,146.8 			"/>
			<polyline class="st1" points="231,150.2 231,152 231,154 231,172.5 			"/>
			<polygon class="st1" points="238.2,174.9 238.2,174.7 229.9,174.1 229.9,174.9 229.9,177.5 229.9,179 238.2,179 238.2,177.5 			
				"/>
			<polygon class="st1" points="168.4,296.9 168.3,298 169.5,298.1 169.6,296.9 			"/>
			<polygon class="st1" points="219.8,296.9 219.7,300.3 221.1,300.4 221.2,296.9 			"/>
			<polygon class="st1" points="188,296.9 187.9,298.9 189.7,299 189.8,296.9 			"/>
			<polygon class="st1" points="215.9,296.9 215.9,300.1 217,300.2 217.1,296.9 			"/>
			<polygon class="st1" points="184.1,296.9 184.1,298.7 185.3,298.8 185.3,296.9 			"/>
			<polygon class="st1" points="225.1,296.9 223.9,296.9 223.8,300.5 225,300.5 			"/>
			<polygon class="st1" points="196.3,296.9 196.3,299.2 197.4,299.3 197.5,296.9 			"/>
			<polygon class="st1" points="192.5,296.9 192.4,299.1 193.6,299.1 193.7,296.9 			"/>
			<polygon class="st1" points="212.1,296.9 212,299.9 213.2,300 213.3,296.9 			"/>
			<polygon class="st1" points="160.7,296.9 160.7,297.7 161.8,297.7 161.9,296.9 			"/>
			<polygon class="st1" points="200.2,296.9 200.1,299.4 201.3,299.5 201.4,296.9 			"/>
			<polygon class="st1" points="208.2,296.9 208.2,299.8 209.3,299.8 209.4,296.9 			"/>
			<path class="st1" d="M154.8,302.1c0,0,0,0.1,0,0.1l2.9,0L154.8,302.1z"/>
			<polygon class="st1" points="180.3,296.9 180.3,298.5 181.4,298.6 181.5,296.9 			"/>
			<polygon class="st1" points="228.9,296.9 227.8,296.9 227.7,300.6 228.8,300.7 			"/>
			<polygon class="st1" points="176.4,296.9 176.4,298.4 177.6,298.4 177.6,296.9 			"/>
			<polygon class="st1" points="172.2,296.9 172.2,298.2 173.7,298.2 173.8,296.9 			"/>
			<polygon class="st1" points="164.5,296.9 164.5,297.8 165.7,297.9 165.7,296.9 			"/>
			<polygon class="st1" points="156.6,296.9 156.5,297.5 158,297.5 158,296.9 			"/>
			<polygon class="st1" points="204,296.9 204,299.6 205.5,299.7 205.6,296.9 			"/>
			<path class="st1" d="M258.4,296.9H243c-1,1.1-2.2,1.9-3.7,2.2l0,2l5.1-0.1l0.6-1.3H286l0.5,0.8l4.3-0.1l0-3.6h-2.3H258.4z"/>
			<path class="st1" d="M244.7,279.9c0,0.4,0,0.8-0.2,1.1c-0.9,1.3-3.5,0.9-5.4,0.6"/>
			<polyline class="st1" points="229,294 229.4,279.8 228.3,279.8 228,287.2 			"/>
			<path class="st1" d="M226.7,272.3c0.1,2,0.2,2.9,0.5,3.5l3.5,0.1"/>
			<path class="st1" d="M226.7,269.9c0,0.2,0,0.4,0,0.6c0,0.7,0,1.3,0,1.8"/>
			<path class="st1" d="M149,278.1c0.1,0.2,0.3,0.5,0.4,0.7l0-0.7L149,278.1z"/>
			<path class="st1" d="M150.5,280.8c0.1,0.3,0.3,0.6,0.5,1c0.2,0.5,1.1,2.4,1.8,4.2c0.1,0.3,0.2,0.6,0.3,0.9"/>
			<path class="st1" d="M154,291.5c0.2,1.2,0.4,2.7,0.6,4.4c0.1,0.5,0.1,1,0.1,1.5"/>
			<path class="st1" d="M147.3,274.3c0.2,0.7,0.5,1.5,0.9,2.3c0.3,0.6,0.5,1.1,0.8,1.5"/>
			<path class="st1" d="M142.7,275c0.2,0,0.3-0.3,0.5-0.8l-1.1,0C142.3,274.7,142.5,275,142.7,275z"/>
			<path class="st1" d="M135.4,275.5c0.4-0.1,0.4-0.6,0.5-1.5l-2.5,0C134,275,134.9,275.7,135.4,275.5z"/>
			<polygon class="st1" points="132.6,108.9 132.3,108.9 126.7,108.9 126.7,108.9 132.6,116 			"/>
			<path class="st1" d="M230.7,303.9v-3.1l-1.8-0.1l-1.1-0.1l-2.7-0.1l-1.2-0.1l-2.7-0.1l-1.4-0.1l-2.7-0.1l-1.2-0.1l-2.7-0.1
				l-1.1-0.1l-2.7-0.1l-1.2-0.1l-2.7-0.1l-1.5-0.1l-2.7-0.1l-1.2-0.1l-2.7-0.1l-1.1-0.1l-2.7-0.1l-1.2-0.1l-2.7-0.1l-1.8-0.1
				l-2.7-0.1l-1.2-0.1l-2.7-0.1l-1.1-0.1l-2.7-0.1l-1.2-0.1l-2.7-0.1l-1.5-0.1l-2.7-0.1l-1.2-0.1l-2.7-0.1l-1.1-0.1l-2.7-0.1
				l-1.2-0.1l-2.7-0.1l-1.4-0.1l-1.8-0.1c0.1,2,0.1,3.6,0.1,4.7l2.9,0.1L230.7,303.9z"/>
			<polygon class="st1" points="181.2,302.7 176.6,302.6 176.6,304.5 176.6,304.5 176.6,304.5 181.2,304.5 			"/>
			<path class="st1" d="M239.6,330.5l0.1,1.7l48.3-0.4c0,0,0,0,0,0c0.2-0.5,0.2-1.1,0.2-2.2l-48.3,0.5L239.6,330.5z"/>
			<polygon class="st1" points="238.4,356.5 238.4,358.4 292.7,357.7 292.7,356.2 238.5,356.2 			"/>
			<polyline class="st1" points="238.4,358.5 239,359.1 238.8,364.5 			"/>
			<path class="st1" d="M288.3,335.8c0-0.2,0-0.5-0.3-1.2c-0.3-1-0.6-1.2-0.5-1.7c0-0.5,0.3-0.5,0.5-1.1"/>
			<path class="st1" d="M239.6,339v2l47.2-0.3c0,0,0,0,0,0c0.5-0.3,1.3-0.6,2.2-1c0.7-0.2,1.3-0.4,2-0.6c0-0.1,0-0.1-0.1-0.2
				c-0.2-0.6-0.3-1-0.5-1.3l-50.8,0.9L239.6,339z"/>
			<polygon class="st1" points="241.7,313.6 241.5,314.9 290.3,313.5 290.3,313.5 289.3,312.4 289.3,312.4 241.7,313.2 			"/>
			<path class="st1" d="M290,329c0.2-0.1,0.3-0.5,0.2-1l-1.5,0C289.1,328.4,289.7,329.2,290,329z"/>
			<polygon class="st1" points="241.7,307.1 241.7,308.5 289.4,308.2 289.4,307.7 289.4,306.2 241.9,306.6 			"/>
			<path class="st1" d="M240,337.3l-0.3,1.3l50.8-0.9c-0.1-0.2-0.2-0.3-0.3-0.4c-0.7-0.8-1.3-0.4-1.8-1.1c-0.1-0.1-0.1-0.2-0.1-0.3
				l-48.4,0.9L240,337.3z"/>
			<path class="st1" d="M239.1,349.2l0,0.3h49.2c-0.1-0.3-0.2-0.7-0.3-1c-0.1-0.4-0.2-0.8-0.3-1.2l-48.6,0.3V349.2z"/>
			<path class="st1" d="M240.9,328.8l-1,1.4l48.3-0.5c0-0.1,0-0.2,0-0.3c0-0.8-0.1-1.1,0-1.3l-47.3,0.4L240.9,328.8z"/>
			<polyline class="st1" points="239.1,349.4 239.4,353.8 290.4,353.2 			"/>
			<path class="st1" d="M290.4,353.2c-0.8-1-1.5-2.2-2.1-3.7"/>
			<path class="st1" d="M290.2,328c0-0.6-0.2-1.3-0.6-1.9c-0.6-0.9-1.3-1.2-1.2-1.6c0.1-0.3,0.6-0.2,1-0.4"/>
			<path class="st1" d="M290.2,316.1l0-0.3l-49,1v4l-0.5,1.4l48.6-0.7c-0.1-0.7-0.1-0.9,0-0.9c0.1-0.1,0.3,0.2,0.8,0.5
				c0.1,0.1,0.3,0.2,0.4,0.4l0.1,0L290.2,316.1z"/>
			<path class="st1" d="M240.7,322.1l-0.2,0.6l0.1,1.7l48.7-0.3c0.1-0.1,0.2-0.1,0.3-0.3c0.2-0.4-0.1-0.7-0.3-2.3c0-0.1,0-0.1,0-0.2
				"/>
			<path class="st1" d="M292.7,356.2v-0.7c0,0,0,0-0.1,0"/>
			<path class="st1" d="M290.5,321.4C290.5,321.4,290.5,321.5,290.5,321.4L290.5,321.4L290.5,321.4z"/>
			<path class="st1" d="M239.6,341.7c0.4,0,0.7,0.1,0.8,0.4c0.3,0.6-0.3,1.5-0.8,2.3v0.4l47.9-0.5c-0.2-0.3-0.4-0.5-0.6-0.8
				c0-1,0-1.9,0-2.9l-47.2,0.3V341.7z"/>
			<line class="st2" x1="292.7" y1="357.7" x2="302.5" y2="357.6"/>
			<line class="st2" x1="302.3" y1="356.2" x2="302.3" y2="356.2"/>
			<line class="st2" x1="226.8" y1="356.2" x2="226.8" y2="356.2"/>
			<line class="st2" x1="302.3" y1="356.2" x2="292.7" y2="356.2"/>
			<line class="st2" x1="226.8" y1="349.4" x2="226.8" y2="349.4"/>
			<line class="st2" x1="226.8" y1="347.7" x2="229.1" y2="347.7"/>
			<line class="st2" x1="226.8" y1="347.7" x2="226.8" y2="347.7"/>
			<line class="st2" x1="302" y1="353" x2="302" y2="353"/>
			<line class="st2" x1="239.6" y1="344.8" x2="239.4" y2="344.8"/>
			<line class="st2" x1="239.6" y1="341" x2="236.2" y2="341.1"/>
			<line class="st2" x1="290.5" y1="321.4" x2="290.6" y2="321.4"/>
			<line class="st2" x1="290.6" y1="321.4" x2="291.7" y2="321.4"/>
			<line class="st2" x1="294.6" y1="315.7" x2="290.2" y2="315.8"/>
			<line class="st2" x1="236.2" y1="306.7" x2="241.9" y2="306.6"/>
			<path class="st1" d="M293.9,309.3l0.6,0.7l0,2.3l0,1.1l0,2.3l0,2.8c0.3,0.3,0.6,0.6,1.1,0.5c0.6-0.1,0.8-0.7,1.3-0.6
				c0.5,0.1,0.9,0.6,0.9,1.2c0,0.8-1,1.3-0.8,1.6c0.1,0.2,0.5,0.2,0.8,0.2c0.1,0,0.6,0,1.2-0.3c0.6-0.3,0.7-0.5,1-0.5
				c0.3,0,0.7,0.1,0.9,0.4"/>
			<path class="st1" d="M302,353l0-0.9c-0.5,0.8-1,1.4-1.6,1.9h1.6h0"/>
			<polyline class="st1" points="301.3,305.2 297.6,305 296.4,304.9 293.1,304.8 			"/>
			<line class="st2" x1="293.7" y1="306.7" x2="300.9" y2="306.5"/>
			<line class="st2" x1="300.7" y1="309.5" x2="293.9" y2="309.3"/>
			<path class="st1" d="M291.1,339.2c0.2,0.5,0.1,0.5,0.2,0.7c0.4,0.7,1.5,0.6,4.3,0.7c1.7,0.1,2.6,0.1,2.8,0.1
				c0.9,0.1,1.7,0.3,2.7,0c0.4-0.1,0.6-0.2,0.8-0.4c0.1-0.2,0.2-0.4,0.2-0.4"/>
			<path class="st1" d="M287.7,347.3c-0.2-1.1-0.2-2.1-0.2-2.9"/>
			<path class="st1" d="M300.4,354c-0.7,0.7-1.5,1.3-2,1.6c-1.9,0-3.8-0.1-5.7-0.1c0,0,0,0-0.1,0c-0.5-0.4-1.4-1.2-2.3-2.3"/>
			<line class="st2" x1="228.7" y1="330.9" x2="227.6" y2="330.8"/>
			<line class="st2" x1="172.7" y1="323.8" x2="170.4" y2="323.7"/>
			<polyline class="st1" points="230.7,244.5 230.7,275.9 230.7,279.9 230.7,300.8 230.7,303.9 230.7,305.6 236.3,305.5 
				236.3,305.7 239.3,305.7 239.3,301.1 239.2,299.1 239,281.6 238.2,227.2 238,212.7 239.3,210.9 237.8,209.9 238.3,203.2 
				239,202.1 239.3,201.5 229.9,201.5 230.1,202.2 			"/>
			<line class="st1" x1="230.7" y1="230.6" x2="230.7" y2="238.5"/>
			<polyline class="st1" points="230.1,202.2 230.7,203.7 230.7,210.2 229.1,211.3 230.6,212.6 230.7,212.7 230.7,214.2 
				230.7,215.7 230.7,217.7 			"/>
			<polygon class="st1" points="239.3,179 238.2,179 229.9,179 228.4,179 228.4,180.7 228.4,180.7 228.4,180.7 239.3,180.7 			"/>
			<polygon class="st1" points="297.7,179 289,179 287.7,179 287.7,181 294.6,181 298.6,181 298.6,181 298.6,179 			"/>
			<polygon class="st1" points="235.6,311.7 236,308.5 236.1,308.1 227.6,308.1 228,310 228.3,310.9 			"/>
			<path class="st1" d="M229.1,348.3l5.7-0.4c-1.6-0.1-2.3-1.6-5-1.7c-0.1,0-0.4,0-0.7,0l0,1.5L229.1,348.3z"/>
			<polygon class="st1" points="236.1,308.1 236.1,308.1 236.2,306.7 236.3,305.7 236.3,305.5 230.7,305.6 229,305.7 227.6,305.7 
				227.6,308.1 			"/>
			<path class="st1" d="M230.9,317.5c0.4,0.9-1.1,1.5-1.2,3.3c-0.1,1.9,1.6,2.4,1.3,4.3c-0.2,1.3-1.2,2.5-1.6,2.9
				c-0.3,0.3-0.6,0.6-0.8,0.7l0,2.1l0,0.1l0,1.3l0,1.1c0.6,0.7,1,0.8,1.7,1.8c1.2,1.7,0.8,2.7,1.8,3.2c1.1,0.6,2.2-0.4,3.1,0.3
				c0.1,0,0.1,0.1,0.1,0.1l0-0.1l0-6.4l0-2.1l0.1-18.5l-7.3-0.7l0.1,5.7C229.6,316.9,230.6,316.8,230.9,317.5z"/>
			<line class="st2" x1="236.1" y1="308.1" x2="227.6" y2="308.1"/>
			<line class="st2" x1="235.6" y1="311.7" x2="228.3" y2="310.9"/>
			<path class="st1" d="M211.7,346.2c0.1,0,0.2,0.1,0.3,0.1c1.9,0.6,2.8,0.8,3.5,1.2c1.6,0.9,2.1,1.7,2.8,2.3
				c0.3,0.3,0.7,0.5,1.2,0.7c1.2,0.4,3,0.4,4.1-0.5c0.9-0.7,0.5-1.3,1.3-2.3c0.5-0.6,1.1-0.9,1.7-1.1"/>
			<path class="st1" d="M201.7,346.6c2-1.1,3.9-1.5,4.6-1.5c1.1-0.1,2.6,0.3,5.5,1.1c0,0,0,0,0,0"/>
			<path class="st1" d="M163.3,330.2c-1.1,0.4-1.9-0.2-2.2,0.1c-0.1,0.1-0.1,0.4,0.7,1.8c0.1,0.1,0.2,0.3,0.3,0.4
				c0.4,0.6,0.9,1.3,1.5,2.3c1.1,1.6,1.3,1.8,1.6,2c0.9,0.7,2,1,4.2,1.1c3.5,0.2,5.3,0.3,7.7-0.3c2.5-0.7,4.1-1.8,4.7-1.2
				c0.5,0.6-0.6,1.9,0.1,2.7c0.2,0.2,0.5,0.5,2.7,0.2c2.2-0.3,2.3-0.7,3.5-0.7c1.9-0.1,4.2,0.7,4.5,2c0.1,0.2-0.1,0.9-0.3,2.2
				c-0.4,1.8-0.5,2-0.3,2.3c0.4,0.5,1.3,0.1,3.6,0.1c1.5,0,2.5,0.1,3,0.7c0.3,0.3,0.3,0.7,0.3,1c0,0.4,0,0.7,0.3,0.8
				c0.5,0.3,1.3-0.3,2.1-0.7c0.1-0.1,0.3-0.1,0.4-0.2"/>
			<line class="st2" x1="239" y1="146.8" x2="230" y2="146.8"/>
			<line class="st2" x1="229.9" y1="174.1" x2="238.2" y2="174.7"/>
			<line class="st2" x1="231" y1="172.5" x2="238.2" y2="173.1"/>
			<polyline class="st1" points="187.9,12.6 183.9,14.7 184.9,14.7 			"/>
			<polyline class="st1" points="239.7,16 239.4,14.2 237.8,13.2 			"/>
			<polygon class="st1" points="249.1,228.1 255.5,228.1 255.5,228.6 256.6,228.5 254.8,226.2 250.2,226 247.8,228.7 249.1,228.7 
							"/>
			<line class="st1" x1="100.1" y1="95.9" x2="100.4" y2="92"/>
			<path class="st1" d="M203.3,148.5c-0.1,0.2-0.2,0.3-0.4,0.5c-0.5,0.4-1.2,0.8-1.8,0.6c-0.4-0.1-0.4-0.2-1.4-0.9
				c-0.2-0.1-0.3-0.2-0.4-0.3"/>
			<path class="st1" d="M203.3,148.5"/>
			<path class="st1" d="M219.7,148.5h-2.4c-0.7,0.1-1.1,0.2-1.4,0.3c-1.3,0.3-1.5,0.7-2.9,1c-0.7,0.2-1.1,0.2-1.4,0.1
				c-0.6-0.3-0.7-0.9-0.9-1.4h-1.3c-0.3,0.3-0.8,0.8-1.5,1c-0.3,0.1-0.4,0.1-0.7,0.1c-0.5-0.1-0.8-0.5-1.4-1.1"/>
			<polyline class="st1" points="220.3,154 220.5,152 220.7,150.2 			"/>
			<polyline class="st1" points="205.8,156.9 208.5,156.9 209.7,157 212.3,157 213.5,157 216.2,157.1 217.3,157.1 220,157.2 			"/>
			<line class="st1" x1="201.6" y1="156.8" x2="204.3" y2="156.8"/>
			<line class="st1" x1="197.7" y1="156.7" x2="200.4" y2="156.7"/>
			<line class="st1" x1="193.9" y1="156.6" x2="196.6" y2="156.6"/>
			<polyline class="st1" points="190,150.1 190.4,152 190.8,154 191.3,156.5 192.7,156.6 			"/>
			<polyline class="st1" points="248.8,155.7 249,157.2 251.4,157.2 			"/>
			<line class="st1" x1="252.4" y1="157.2" x2="255.1" y2="157.2"/>
			<line class="st1" x1="256.6" y1="157.2" x2="259.3" y2="157.2"/>
			<line class="st1" x1="260.5" y1="157.2" x2="263.2" y2="157.2"/>
			<line class="st1" x1="264.3" y1="157.2" x2="267" y2="157.2"/>
			<line class="st1" x1="268.2" y1="157.2" x2="270.9" y2="157.2"/>
			<line class="st1" x1="272.3" y1="157.2" x2="275" y2="157.2"/>
			<polyline class="st2" points="276.2,157.2 277.3,157.2 278.1,152 290,152 			"/>
			<line class="st2" x1="278.8" y1="154" x2="277.8" y2="154"/>
			<line class="st2" x1="280" y1="154" x2="282.7" y2="154"/>
			<line class="st2" x1="283.8" y1="154" x2="286.5" y2="154"/>
			<line class="st2" x1="288" y1="154" x2="290" y2="154"/>
			<line class="st1" x1="278.3" y1="150.3" x2="278.1" y2="152"/>
			<line class="st1" x1="290" y1="150.4" x2="290" y2="174.9"/>
			<polyline class="st1" points="159.9,216 159.9,274.5 169.7,274.7 182.5,272.4 213.6,271.5 213.6,212.4 180.4,211.5 180.4,211.5 
				179.9,272.8 180.4,211.5 175.4,212.6 			"/>
			<polyline class="st1" points="226.7,272.3 216.5,271.5 213.6,271.5 			"/>
			<line class="st1" x1="169.7" y1="274.7" x2="227.2" y2="275.8"/>
			<line class="st1" x1="150.5" y1="278.1" x2="153.2" y2="278.2"/>
			<line class="st1" x1="154.4" y1="278.2" x2="157.1" y2="278.2"/>
			<line class="st1" x1="158.5" y1="278.3" x2="161.2" y2="278.3"/>
			<line class="st1" x1="157" y1="274.5" x2="159.9" y2="274.5"/>
			<line class="st1" x1="162.4" y1="278.4" x2="165.1" y2="278.4"/>
			<line class="st1" x1="166.2" y1="278.4" x2="168.9" y2="278.5"/>
			<line class="st1" x1="170.1" y1="278.5" x2="172.7" y2="278.6"/>
			<line class="st1" x1="174.3" y1="278.6" x2="176.9" y2="278.7"/>
			<line class="st1" x1="178.1" y1="278.7" x2="180.8" y2="278.8"/>
			<line class="st1" x1="182" y1="278.8" x2="184.6" y2="278.8"/>
			<line class="st1" x1="185.8" y1="278.9" x2="188.5" y2="278.9"/>
			<line class="st1" x1="190.3" y1="279" x2="193" y2="279"/>
			<line class="st1" x1="194.2" y1="279.1" x2="196.8" y2="279.1"/>
			<line class="st1" x1="198" y1="279.1" x2="200.7" y2="279.2"/>
			<line class="st1" x1="201.8" y1="279.2" x2="204.5" y2="279.3"/>
			<line class="st1" x1="206" y1="279.3" x2="208.7" y2="279.4"/>
			<line class="st1" x1="209.9" y1="279.4" x2="212.6" y2="279.5"/>
			<line class="st1" x1="213.7" y1="279.5" x2="216.4" y2="279.5"/>
			<line class="st1" x1="217.6" y1="279.6" x2="220.3" y2="279.6"/>
			<line class="st1" x1="224.4" y1="279.7" x2="221.7" y2="279.7"/>
			<line class="st1" x1="225.6" y1="279.7" x2="228.3" y2="279.8"/>
			<line class="st1" x1="229.4" y1="279.8" x2="230.7" y2="279.9"/>
		</g>
		<path class="st1" d="M226.8,360.9l-45.2,1.3c0,0-41,1.8-52.5,3c-11.5,1.2-18.9,2.8-25.5,5.1c-6.5,2.2-11.2,5.1-11.2,5.1h-5"/>
		<path class="st1" d="M92.8,362.1c-0.8,0.3-1.5,0.6-2,0.8H86"/>
		<path class="st1" d="M226.8,350.8c0,0-44.3,2.1-50.1,2.2s-28.2,0.7-39.3,1.7s-23.6,2.2-29.8,3.4c-4.2,0.8-9.2,2.2-12.7,3.4"/>
		<line class="st1" x1="221.7" y1="361" x2="221.7" y2="364.8"/>
		<line class="st1" x1="215.2" y1="361.2" x2="215.2" y2="365.1"/>
		<line class="st1" x1="206.5" y1="361.4" x2="206.5" y2="365.5"/>
		<line class="st1" x1="210.3" y1="361.3" x2="210.3" y2="365.4"/>
		<line class="st1" x1="199.8" y1="365.9" x2="199.9" y2="361.6"/>
		<line class="st1" x1="191.2" y1="361.9" x2="191.2" y2="366.3"/>
		<line class="st1" x1="184.8" y1="362" x2="184.6" y2="366.7"/>
		<line class="st1" x1="175.6" y1="362.4" x2="175.5" y2="367.1"/>
		<line class="st1" x1="168.7" y1="362.9" x2="168.7" y2="367.5"/>
		<line class="st1" x1="164.6" y1="362.9" x2="164.4" y2="367.5"/>
		<line class="st1" x1="159.8" y1="363.2" x2="160.1" y2="367.9"/>
		<line class="st1" x1="152.6" y1="363.6" x2="152.6" y2="368.1"/>
		<line class="st1" x1="143.8" y1="364.1" x2="143.8" y2="368.9"/>
		<line class="st1" x1="136.7" y1="364.5" x2="136.7" y2="369.8"/>
		<line class="st1" x1="131.8" y1="364.9" x2="131.8" y2="370.3"/>
		<line class="st1" x1="127.4" y1="365.5" x2="127.4" y2="370.8"/>
		<line class="st1" x1="120.8" y1="366.2" x2="121" y2="371.5"/>
		<line class="st1" x1="114.6" y1="367.3" x2="114.8" y2="372.2"/>
		<line class="st1" x1="108" y1="368.8" x2="108.5" y2="373.4"/>
		<line class="st1" x1="102.6" y1="370.6" x2="103" y2="375.6"/>
		<line class="st1" x1="98.1" y1="372.4" x2="98.1" y2="378.4"/>
		<line class="st1" x1="95.4" y1="373.7" x2="95.5" y2="380.4"/>
		<line class="st1" x1="86.8" y1="369.2" x2="86.8" y2="371.9"/>
		<line class="st1" x1="96.6" y1="373.1" x2="96.2" y2="367.8"/>
		<line class="st1" x1="100.2" y1="371.5" x2="100" y2="366.4"/>
		<line class="st1" x1="103.7" y1="370.2" x2="103.4" y2="365.3"/>
		<line class="st1" x1="108.8" y1="363.7" x2="109.2" y2="368.5"/>
		<line class="st1" x1="115.4" y1="362.1" x2="115.8" y2="367"/>
		<line class="st1" x1="123.4" y1="360.7" x2="123.4" y2="366.1"/>
		<line class="st1" x1="128.7" y1="360.2" x2="128.9" y2="365.2"/>
		<line class="st1" x1="133" y1="359.9" x2="133.2" y2="364.5"/>
		<line class="st1" x1="139.7" y1="359.5" x2="139.7" y2="364.5"/>
		<line class="st1" x1="145.8" y1="359.2" x2="145.8" y2="364.1"/>
		<line class="st1" x1="150.6" y1="359.2" x2="150.6" y2="363.7"/>
		<line class="st1" x1="155.5" y1="358.8" x2="155.8" y2="363.4"/>
		<line class="st1" x1="163.6" y1="358.4" x2="163.6" y2="363.2"/>
		<line class="st1" x1="171.5" y1="358.4" x2="171.5" y2="362.7"/>
		<line class="st1" x1="180.3" y1="357.7" x2="180.3" y2="362.4"/>
		<line class="st1" x1="187.2" y1="357.7" x2="187.2" y2="362"/>
		<line class="st1" x1="196.1" y1="357.1" x2="196.1" y2="361.9"/>
		<line class="st1" x1="202.7" y1="357.1" x2="202.7" y2="361.6"/>
		<line class="st1" x1="211.7" y1="356.8" x2="211.7" y2="361.3"/>
		<line class="st1" x1="217.7" y1="356.5" x2="218.2" y2="361.2"/>
		<line class="st1" x1="222.5" y1="351" x2="222.7" y2="356.3"/>
		<line class="st1" x1="214.3" y1="356.6" x2="214" y2="351.4"/>
		<line class="st1" x1="218.4" y1="351.2" x2="218.4" y2="349.9"/>
		<line class="st1" x1="211.7" y1="346.2" x2="211.9" y2="351.5"/>
		<line class="st1" x1="207.7" y1="351.7" x2="207.7" y2="356.8"/>
		<line class="st1" x1="205.3" y1="351.8" x2="204.9" y2="346.5"/>
		<line class="st1" x1="196.5" y1="346.8" x2="196.4" y2="352.2"/>
		<line class="st1" x1="198.7" y1="352.1" x2="198.7" y2="357"/>
		<line class="st1" x1="192" y1="357.1" x2="191.8" y2="352.4"/>
		<line class="st1" x1="189.8" y1="352.5" x2="189.6" y2="347.1"/>
		<line class="st1" x1="181" y1="347.4" x2="181.2" y2="353"/>
		<line class="st1" x1="183.2" y1="352.8" x2="183.3" y2="357.6"/>
		<line class="st1" x1="176.6" y1="357.9" x2="176.6" y2="353"/>
		<line class="st1" x1="174.5" y1="353" x2="174.3" y2="347.7"/>
		<line class="st1" x1="167.6" y1="353.2" x2="167.9" y2="358.2"/>
		<line class="st1" x1="166" y1="353.3" x2="165.7" y2="348"/>
		<line class="st1" x1="158.9" y1="348.3" x2="158.9" y2="353.5"/>
		<line class="st1" x1="160.9" y1="353.4" x2="160.9" y2="358.5"/>
		<line class="st1" x1="151.4" y1="359" x2="151.2" y2="353.8"/>
		<line class="st1" x1="150.3" y1="353.8" x2="150.1" y2="348.7"/>
		<line class="st1" x1="144" y1="349" x2="144.3" y2="354.2"/>
		<line class="st1" x1="141" y1="359.4" x2="141" y2="354.4"/>
		<line class="st1" x1="135.7" y1="354.8" x2="135.8" y2="359.7"/>
		<line class="st1" x1="134.4" y1="354.9" x2="134.1" y2="349.7"/>
		<line class="st1" x1="127.1" y1="350.3" x2="127.4" y2="355.6"/>
		<line class="st1" x1="129.2" y1="355.4" x2="129.7" y2="360.1"/>
		<line class="st1" x1="122.2" y1="360.9" x2="122" y2="356.1"/>
		<line class="st1" x1="122.2" y1="350.8" x2="122.6" y2="356.1"/>
		<line class="st1" x1="116.7" y1="356.7" x2="117.1" y2="361.7"/>
		<line class="st1" x1="114.6" y1="357" x2="114" y2="351.6"/>
		<line class="st1" x1="108.8" y1="352.3" x2="109.2" y2="357.8"/>
		<line class="st1" x1="110.4" y1="357.6" x2="110.9" y2="363.2"/>
		<line class="st1" x1="105.7" y1="364.6" x2="105.5" y2="358.5"/>
		<line class="st1" x1="103.8" y1="358.8" x2="103.6" y2="355.2"/>
		<line class="st1" x1="97.6" y1="354.3" x2="97.8" y2="360.7"/>
		<line class="st1" x1="99.7" y1="359.9" x2="99.4" y2="366.7"/>
		<line class="st1" x1="94.6" y1="368.5" x2="93.9" y2="362.7"/>
		<polyline class="st1" points="90.8,362.9 92.2,369.5 92.5,375.2 91.7,383 		"/>
		<path class="st1" d="M226.8,356.2l-33.2,1c0,0-36.2,1.5-43.4,1.8c-7.2,0.4-18.9,0.7-28.2,1.8c-9.2,1.2-25.6,6.4-29.7,8.6l-7.9-0.4
			"/>
		<path class="st1" d="M140.7,340.7c-0.8,1-0.7,2.1-0.2,2.5c0.5,0.4,1.7,0.1,2.3-1"/>
		<path class="st1" d="M147.2,343c0.3,0.9,1.2,1.5,2.2,1.3c0.9-0.1,1.6-0.9,1.7-1.8"/>
		<path class="st1" d="M158.5,341.2c0.8,0.8,2.1,0.7,2.7,0c0.4-0.5,0.5-1.3,0.2-2"/>
		<path class="st1" d="M136.8,336.9c-0.6,0.9-0.3,2.1,0.5,2.5c0.7,0.3,1.8,0,2.2-1"/>
		<path class="st1" d="M148.5,337.4c0.9,1.3,2.4,1.4,3,0.8c0.5-0.4,0.5-1.4,0-2.3"/>
		<path class="st1" d="M130,344.4c-0.1,0.6,0.1,1.2,0.5,1.5c0.6,0.4,1.7,0.1,2.2-0.8"/>
		<path class="st1" d="M170,343.4c0.6,0.8,1.6,1.2,2.5,1c1.1-0.3,1.9-1.4,1.8-2.7"/>
		<path class="st1" d="M158.7,344c-0.1,0.8,0.3,1.5,1,1.8c0.8,0.4,1.6-0.1,1.7-0.2"/>
		<path class="st1" d="M140.5,346.2c0.1,0.1,0.8,0.9,1.8,0.8c0.8,0,1.6-0.5,2-1.3"/>
		<path class="st1" d="M165,338.4L165,338.4c0,0.9,0.5,1.7,1.3,2c0.7,0.3,1.6,0.1,2.2-0.5"/>
		<path class="st1" d="M179.5,341.5c0.2,0.7,0.8,1.2,1.5,1.3c0.9,0.2,1.8-0.3,2.2-1.2"/>
		<path class="st1" d="M157.5,335.7c0.4,0.6,1,1,1.7,1c0.8,0,1.6-0.6,1.8-1.5"/>
		<path class="st1" d="M142.2,334.7c-0.3,0.8,0.1,1.7,0.8,2c0.8,0.3,1.8-0.2,2-1.2"/>
		<rect x="262.4" y="285.1" class="st1" width="20.4" height="6.8"/>
		<rect x="262.4" y="279.4" class="st1" width="20.4" height="4.4"/>
		<polygon class="st1" points="282.8,274.8 282.8,278.1 262.4,278.1 261.9,274.8 		"/>
		<polygon class="st1" points="282.8,270.1 282.8,273.4 262.4,273.4 262.4,269.5 		"/>
		<polygon class="st1" points="268.8,262.7 269,265.9 276.4,265.9 276.4,262.7 		"/>
		<polyline class="st1" points="259.8,261.5 263,261.5 263,268.7 259.9,268.8 		"/>
		<path class="st1" d="M261.1,263.9c-0.3,0.2-0.4,0.5-0.5,0.6c0,0-0.2,0.5,0.1,1c0.3,0.4,0.9,0.8,1.4,0.6c0.6-0.2,1-1,0.7-1.7
			C262.5,263.7,261.6,263.6,261.1,263.9z"/>
		<path class="st1" d="M120.8,350.9c-0.8-2.9-2-6.2-0.6-7.2c1.3-1,4.9,0,4.9,0c2-3.7,3.9-6.7,5.4-8.9c0.6-0.8,1.1-1.5,1.5-2.1
			c1.1-1.4,1.9-2.3,2.6-2.9"/>
	</g>
	<polygon class="st1" points="184.9,15.1 185.4,17.6 191.1,35.2 191.4,20.5 232.7,21.5 235.3,35.4 235.2,36.8 235.2,36.8 
		235.3,36.8 240.9,36.8 241.6,30 239.7,16 184.9,14.7 	"/>
</g>
</svg>
